<?xml version="1.0" encoding="utf-8"?>
<!-- Generator: Adobe Illustrator 23.0.1, SVG Export Plug-In . SVG Version: 6.00 Build 0)  -->
<svg version="1.1" xmlns="http://www.w3.org/2000/svg" xmlns:xlink="http://www.w3.org/1999/xlink" x="0px" y="0px"
	 viewBox="0 0 1224 792" style="enable-background:new 0 0 1224 792;" xml:space="preserve">
<style type="text/css">
	.st0{fill:#474044;}
	.st1{fill:#1E1A1F;}
	.st2{fill:#5F5A60;}
	.st3{fill:#5E4936;}
	.st4{fill:#FFFFFF;stroke:#000000;stroke-miterlimit:10;}
	.st5{stroke:#000000;stroke-miterlimit:10;}
	.st6{fill:none;}
	.st7{font-family:'MyriadPro-Regular';}
	.st8{font-size:30px;}
	.st9{fill:#C2C1C0;}
	.st10{fill:#D32627;}
	.st11{fill:#9B1D20;}
	.st12{fill:#FFFFFF;}
	.st13{fill:#EAEAEA;}
	.st14{fill:#757576;}
	.st15{opacity:0.5;fill:#C8993A;}
	.st16{opacity:0.19;fill:#ADDEDE;}
	.st17{opacity:0.19;fill:#B68B4A;}
	.st18{fill:#7D7D7D;}
	.st19{fill:#D6D6D6;}
	.st20{fill:#4A8A3F;}
	.st21{fill:#787878;}
	.st22{fill:#515251;}
	.st23{fill:#856544;}
	.st24{fill:#5E4731;}
	.st25{fill:#36612F;}
	.st26{fill:#83C441;}
	.st27{fill:#383439;}
	.st28{fill:#DCDAD9;}
	.st29{fill:#EEECEC;}
	.st30{fill:#E1DEDF;}
	.st31{fill:#4B4847;}
	.st32{fill:#EDEDEC;}
	.st33{fill:#1F1C19;}
	.st34{fill:#5D5C5C;}
	.st35{fill:#5B5A5A;}
	.st36{fill:#BFBEBE;}
	.st37{fill:#C2C1C1;}
	.st38{fill:#BEBBBB;}
	.st39{fill:#C6C2C3;}
	.st40{fill:#7D797A;}
	.st41{fill:#78736B;}
	.st42{fill:#766B64;}
	.st43{fill:#C6C5C5;}
	.st44{fill:#413B37;}
	.st45{fill:#686665;}
	.st46{fill:#7B7A7A;}
	.st47{fill:#B7B7B7;}
	.st48{fill:#B3B0B1;}
	.st49{fill:#595657;}
	.st50{fill:#C5C1BE;}
	.st51{fill:#807F7F;}
	.st52{fill:#9C9899;}
	.st53{fill:#7A7778;}
	.st54{fill:#888888;}
	.st55{fill:#39343A;}
	.st56{fill:#3D393F;}
	.st57{fill:#3D3733;}
	.st58{fill:#9B9899;}
	.st59{fill:#5B5352;}
	.st60{fill:#8C8279;}
	.st61{fill:#555057;}
	.st62{fill:#4E4950;}
	.st63{fill:#575157;}
	.st64{fill:#514C52;}
	.st65{fill:#686168;}
	.st66{fill:#6A636A;}
	.st67{fill:#686269;}
	.st68{fill:#757075;}
	.st69{fill:#ACA19A;}
	.st70{fill:#585358;}
	.st71{fill:#F3F2F2;}
	.st72{fill:#CBC9C9;}
	.st73{fill:#C5C3C3;}
	.st74{fill:#8A8A8A;}
	.st75{fill:#A2A2A2;}
	.st76{fill:#847F80;}
	.st77{fill:#A7A7A5;}
	.st78{fill:#5D5A59;}
	.st79{fill:#747373;}
	.st80{fill:#838383;}
	.st81{fill:#D9D8D8;}
	.st82{fill:#858384;}
	.st83{fill:#6F6A6C;}
	.st84{fill:#262222;}
	.st85{fill:#343433;}
	.st86{fill:#ACACA8;}
	.st87{fill:#999999;}
	.st88{fill:#E8E5E5;}
	.st89{fill:#938F90;}
	.st90{fill:#BCBBBA;}
	.st91{fill:#716B72;}
	.st92{fill:#C7C4C5;}
	.st93{fill:#B6B2B3;}
	.st94{fill:#C3B9B4;}
	.st95{fill:#E3DBD7;}
	.st96{fill:#928D89;}
	.st97{fill:#68636A;}
	.st98{fill:#686369;}
	.st99{fill:#69646A;}
	.st100{fill:#4C2022;}
	.st101{fill:#898888;}
	.st102{fill:#555555;}
	.st103{fill:#A5A5A5;}
	.st104{fill:#494949;}
	.st105{fill:none;stroke:#5E4731;stroke-miterlimit:10;}
	.st106{fill:#171717;}
</style>
<g id="Layer_1">
	<path class="st0" d="M1129.21,291.43v-39.06c-17.02,3-30.23,0-30.23,0v42.37h30.23V291.43z"/>
	<path class="st1" d="M1126.37,257.05c-0.01,0.79-0.01,1.58-0.02,2.37c0.13,0.34,0.27,0.73-0.12,0.95c-0.3,0.17-0.55-0.09-0.65-0.38
		c-0.26-0.74-0.11-1.5-0.41-2.25c1.4,4.3,0.19,8.73,0.92,13.06c0.17,1.03,0.2,2-0.51,2.88c-0.38,0.47-0.56,1.11-0.4,1.65
		c1.13,3.7-0.54,7.47,0.3,11.18c0.25,1.12,0.22,2.33-0.07,3.45c-0.32,1.24-0.35,2.45,0.12,3.62c0.83,2.06-0.03,4.13,0.05,6.2
		c0.24,6.54,0.61,13.09,0.65,19.62c0.02,3.22,0.5,6.44,0.19,9.66c-0.14,1.4,0.09,2.84,0.55,4.05c0.68,1.79,0.4,3.48,0.44,5.26
		c0.08,3.38-0.24,6.95,0.6,10.08c0.86,3.19,0.63,6.26,0.92,9.37c0.12,1.32-0.33,1.9-1.62,1.88c-0.57,0.02-1.13-0.03-1.68-0.18
		c-3.2-2.27-6.82-4-9.32-7.18c-0.8-0.89-1.17-1.9-0.83-3.1c0.38-0.79,0.82-0.65,1.27-0.07c0.31,0.4,0.46,0.89,0.73,1.31
		c1.77,1.97,1.98,1.99,3.94,0.37c0.07-0.18,0.14-0.35,0.18-0.54c-0.75-1.79-2.42-2.83-3.48-4.37c-0.75-1.1-1.18-2.01-0.48-3.36
		c0.72-1.4,0.53-2.95-0.01-4.42c-0.47-1.26-0.52-2.43,0.05-3.76c0.52-1.22,0.74-2.65-0.1-3.94c-0.4-0.61-0.39-1.27-0.12-1.87
		c0.81-1.83,0.57-3.67,0.23-5.53c-0.22-1.15-0.26-2.3,0-3.44c0.43-1.91,0.29-3.73-0.8-5.41c-0.32-0.49-0.61-1.08-0.35-1.64
		c1.2-2.56,0.74-5.14,0.37-7.8c-0.18-1.28,0.42-2.67,0.05-4.04c-0.11-0.43-0.38-0.77-0.53-1.18c-0.89-2.19-0.2-4.44-0.16-6.65
		c0.05-2.53,0.47-5.05-0.37-7.55c-0.34-1.01,0.3-1.98,0.51-2.95c0.6-2.69-0.27-5.3-0.29-7.95c-0.02-2.36-0.35-4.74,0.34-7.06
		c0.06-0.21,0.14-0.45,0.07-0.64c-1.25-3.23,1.18-6.33,0.32-9.55c-0.15-0.58,0.05-1.15,0.65-1.49c2.24-0.54,4.51-0.17,6.77-0.27
		c0.52,0.01,1.03,0.06,1.51,0.29C1126.23,256.08,1126.58,256.44,1126.37,257.05z"/>
	<path class="st2" d="M1111.98,296.24c0.03,1.01-0.03,2-0.62,2.88c-0.63,0.28-1.32,0.09-1.98,0.28c-3.84,1.12-4.82,0.48-4.64-3.34
		c0.06-1.36-0.79-2.57-0.36-3.92c-0.05-1.14,0.25-1.9,1.65-1.68c0.39,0.06,1.2,1.5,1.22-0.21c0.01-0.68,0.48-1.47-1-1.86
		c-2.3-0.61-3.37-5.56-1.94-7.5c0.82-1.11,1.88-1.15,3.11-0.45c-0.06-0.45-0.04-0.74-0.11-0.77c-4.78-1.87-1.6-5.97-2.51-8.92
		c-0.22-0.7,0.17-1.13,0.83-1.24c0.74-0.12,1.81,0.5,1.69-1.09c-0.11-1.49-1.13-1.3-2.07-1.36c-0.28-0.02-0.56-0.1-1-0.18
		c0.9-2.03,1.02-4.09,0.45-6.14c-0.52-1.9-0.68-3.45,2.05-3.38c-0.84-0.1-1.67-0.19-2.51-0.29c0.83-0.18,1.66-0.37,2.49-0.55
		c0.62-0.29,1.32-0.34,1.95-0.61c1.53-0.07,3.12-0.52,4.47,0.67c-0.08,2.79,0.1,5.58-0.46,8.38c-0.19,0.94-0.16,1.52-1.17,1.82
		c-0.95,0.28-1.45,0.99-1.17,2.01c0.09,0.32,0.47,0.81,0.7,0.8c1.22-0.05,0.58-1.45,1.35-2.02c0.92,4.54-1.08,8.7-1.6,13.55
		c0.71-0.91,1.07-1.38,1.9-2.44c-0.46,2.54,0.5,4.46-0.74,6.23c-0.54,0.76,0.5,0.89,0.59,1.4c-0.78,0.78-1.24,1.67-1.27,2.81
		c-0.02,1.18-0.58,1.78-1.93,1.27c1.03,1.51,2.67,2.7,1.83,4.8C1111.81,295.23,1112.62,295.17,1111.98,296.24z"/>
	<path class="st3" d="M921.64,348.33l6.19-18.67L937.5,343l10.5-23.67l8.33,12.83l6.67-21.5l5.17,14l6.17-22.67l3.22,41
		c0,0-46.39,25.83-46.55,25S921.64,348.33,921.64,348.33z"/>
	<path d="M224.22,542.36c21.9,17.17,47.44,0,47.44,0v117.28c-24.5,14.08-47.44,0-47.44,0V542.36z"/>
	<path d="M224.22,542.54c23.46-4.2,47.44,0,47.44,0C247.42,561.77,224.22,542.54,224.22,542.54z"/>
	<g>
		<rect x="554.31" y="268.83" width="35.2" height="198.39"/>
		<polygon points="593.24,268.83 593.24,325.9 670.57,467.22 670.57,418.69 		"/>
		<rect x="674.3" y="268.83" width="37.33" height="198.39"/>
		<path class="st4" d="M664.17,489.09"/>
		<rect x="554.31" y="224.57" class="st5" width="35.2" height="35.2"/>
		<circle cx="692.97" cy="493.73" r="18.67"/>
		<polygon points="666.3,474.61 666.3,511.94 502.05,511.94 502.05,224.12 545,224.12 545,474.61 		"/>
		<path d="M720.7,511.94V259.77H597.51v-35.65h109.33c57.6-0.21,51.73,44.72,51.73,44.72l0.17,190.39
			C758.77,501.88,720.7,511.94,720.7,511.94z"/>
	</g>
	<rect x="515" y="525" class="st6" width="213" height="26.5"/>
	<text transform="matrix(1 0 0 1 515 546.2998)" class="st7 st8">INSULOSE VAPES </text>
	<path class="st9" d="M266.59,471.95v-43.69L229.3,395.1v76.85C247.29,480.37,266.59,471.95,266.59,471.95z"/>
	<path d="M225.79,395.84l46.5,37.19v-90.74c-16.67,14.92-46.5,20.51-46.5,20.51V395.84z"/>
	<path d="M272.29,342.28c-33.77,6.63-46.5,20.51-46.5,20.51C252.61,359.48,272.29,342.28,272.29,342.28z"/>
	<path class="st10" d="M261.78,347.25v-17.2c-13.88,3.73-25.48,1.04-25.48,1.04v27.14L261.78,347.25z"/>
	<path class="st11" d="M236.3,331.09c12.79-1.66,25.48-1.04,25.48-1.04C247.01,334,236.3,331.09,236.3,331.09z"/>
	<path d="M227.73,466.49v78.45c20.46,11.19,40.44,0,40.44,0v-78.45C246.75,474.58,227.73,466.49,227.73,466.49z"/>
	<path class="st12" d="M232.15,367.97v23.93l33.78,24.34V354.3C242.24,370.46,232.15,367.97,232.15,367.97z"/>
	<path class="st13" d="M240.7,398.07v-15.73c7.24,2.93,15.84,0,15.84,0v16.5C247.48,401.71,240.7,398.07,240.7,398.07z"/>
	<path class="st14" d="M256.54,398.84v10.64l-15.84-11.42C248.88,401.54,256.54,398.84,256.54,398.84z"/>
	<path class="st13" d="M256.54,382.34c-8.08-0.9-15.84,0-15.84,0C248.26,385.27,256.54,382.34,256.54,382.34z"/>
	<path class="st14" d="M253.23,382.72v-20.75c-7.04,3.31-8.96,3.96-8.96,3.96v16.79C249.52,383.48,253.23,382.72,253.23,382.72z"/>
	<path class="st12" d="M246.2,399.59v-6.6c2.21-3.57,4.46,0,4.46,0v6.83C248.18,399.98,246.2,399.59,246.2,399.59z"/>
	<path class="st12" d="M254.96,399.27v-6.04c0.87-2.91,1.58-2.91,1.58-2.91v8.53C255.56,399.36,254.96,399.27,254.96,399.27z"/>
	<path class="st12" d="M258.51,399.55"/>
	<path class="st12" d="M242.38,398.7v-6.07c-0.5-2.02-1.68-2.32-1.68-2.32v7.76C241.68,398.58,242.38,398.7,242.38,398.7z"/>
	<path class="st15" d="M265.93,376.88c-19.12,2.9-33.78,0-33.78,0v15.02l33.78,24.34V376.88z"/>
	<path class="st16" d="M232.15,367.97v23.93l33.78,24.34V354.3C242.24,370.46,232.15,367.97,232.15,367.97z"/>
	<path class="st17" d="M265.93,376.88c-17.05-1.24-33.78,0-33.78,0C249.29,379.78,265.93,376.88,265.93,376.88z"/>
	<rect x="271.67" y="542.54" class="st18" width="8.08" height="116.93"/>
	<rect x="216.14" y="542.54" class="st18" width="8.08" height="116.93"/>
	<polyline class="st18" points="262.04,547.03 265.76,546.08 270.4,547.78 266.68,548.51 266.59,548.53 262.04,547.03 
		262.04,663.85 266.59,667.87 266.59,548.53 266.59,667.87 270.4,664.76 270.4,547.78 266.59,548.53 	"/>
	<polyline class="st18" points="237.16,547.97 232.97,547.03 227.73,548.73 231.92,549.46 232.03,549.48 237.16,547.97 
		237.16,664.79 232.03,668.81 232.03,549.48 232.03,668.81 227.73,665.7 227.73,548.73 232.03,549.48 	"/>
	<rect x="246.08" y="553.5" class="st18" width="8.39" height="117.47"/>
	<polyline class="st18" points="246.08,553.5 247.94,549.95 251.78,549.91 254.47,553.5 	"/>
	<polygon class="st18" points="232.44,496.22 232.44,540.67 237.16,539.31 237.16,494.87 232.44,496.22 221.32,494.97 
		227.73,493.52 237.16,494.87 	"/>
	<polygon points="221.32,494.97 221.32,536.62 232.44,540.67 232.44,496.22 	"/>
	<polygon class="st19" points="222.91,501.5 222.91,531.25 230.85,534.15 230.85,502.39 	"/>
	<path class="st11" d="M261.78,330.06c-6.07,11.81-17.51,24.74-17.51,24.74l17.51-7.54V330.06z"/>
	<path class="st19" d="M283.06,350.88"/>
	<path class="st20" d="M958.19,347v-48.83c-19.19,4.83-29.32,0.58-29.32,0.58l0.8,58.75h28.52V347z"/>
	<path class="st21" d="M266.59,428.26c-7.45,23.31-34.14,39.76-34.14,39.76c23.27,5.61,34.14-1.54,34.14-1.54V428.26z"/>
	<polygon class="st22" points="237.16,494.87 232.44,540.67 237.16,539.31 	"/>
	<path class="st23" d="M978,670.33c0,0-39.91,12.67-60,0.64c14-31.47,0-77.97,0-77.97c18-34.67,0-74.67,0-74.67v-43.27
		c21.5-34.56,0-96.73,0-96.73c8.65-10.67,0-35.33,0-35.33l8.65,12.67l4.47-16.67l10.6,15.33l7.81-22.67l8.65,15.33l5.3-24.67
		l3.91,16l7.81-23.33l2.79,33.33c-14,27.67,0,67.33,0,67.33c-15,33.33,0,82.67,0,82.67c-14.67,40.5,0,81.33,0,81.33
		c-17.17,30.17,0,80,0,80c-7.61-44.15,0-80,0-80"/>
	<path class="st24" d="M918,475.06c9.49-44.06,0-96.73,0-96.73C942.5,445,918,475.06,918,475.06z"/>
	<path class="st24" d="M918,343c1,18,0,35.33,0,35.33C928.89,368.03,918,343,918,343z"/>
	<path class="st24" d="M918,518.33c7.96,37.64,0,74.67,0,74.67C938,555.67,918,518.33,918,518.33z"/>
	<path class="st24" d="M918,670.97c6.09-39.96,0-77.97,0-77.97C932.5,641.5,918,670.97,918,670.97z"/>
	<path class="st24" d="M978,348.33c-6.18,32.15,0,67.33,0,67.33C962,373.5,978,348.33,978,348.33z"/>
	<path class="st24" d="M978,498.33c-6.65-48.34,0-82.67,0-82.67C961.5,454,978,498.33,978,498.33z"/>
	<path class="st24" d="M978,579.67c-6.48-45.18,0-81.33,0-81.33C963,540.5,978,579.67,978,579.67z"/>
	<path class="st24" d="M978,579.67"/>
	<path class="st3" d="M978,579.67c-18.5,33.08,0,80,0,80"/>
	<path class="st25" d="M928.87,298.75c14.63-1.5,29.32-0.58,29.32-0.58C941.5,303.63,928.87,298.75,928.87,298.75z"/>
	<ellipse class="st26" cx="924.44" cy="498.33" rx="7.64" ry="15.83"/>
	<ellipse class="st25" cx="921.22" cy="498.33" rx="5.44" ry="13.06"/>
	<g>
		<g>
			<path class="st24" d="M929.08,380.42c1.63,1.86,4.14,4.08,4.98,6.39c2.66,7.33-0.24,3.5-1.41,6.95c-0.74,2.18,1.05,3.91,2.2,5.51
				c1.31,1.82,3.74,3.93,4.52,6.04c1.03,2.82,0.33,4.5-0.56,7c-0.98,2.77-0.69,5.43,0.4,8.11c0.48,1.18,2.42,0.66,1.93-0.53
				c-1.39-3.4-0.44-5.69,0.6-9c0.39-1.22,0.84-1.89,0.7-3.27c-0.46-4.57-5.84-6.91-7.05-10.93c-0.86-2.83,2.34-4.86,1.82-7.88
				c-0.6-3.49-4.47-7.24-6.71-9.8C929.65,378.03,928.24,379.45,929.08,380.42L929.08,380.42z"/>
		</g>
	</g>
	<g>
		<g>
			<path class="st24" d="M957.76,390.23c1.36,3.62,2.73,7.25,4.09,10.87c1.08,2.88,2.82,6.05,3.41,9.06c0.54,2.7-0.8,4.53-0.73,6.93
				c0.1,3.39,3.36,4.34,2.35,8.89c-1.33,6.01-7.05,11.13-9.52,16.73c-2.09,4.75-2.73,9.71-0.86,14.62c0.45,1.19,2.39,0.67,1.93-0.53
				c-2.96-7.76,1.16-14.72,5.29-21.09c2.38-3.67,6.09-8.27,5.56-12.99c-0.37-3.33-1.98-3.74-1.69-8.04
				c0.13-1.95,0.41-2.32-0.17-4.34c-2.01-6.99-5.18-13.83-7.75-20.63C959.24,388.51,957.31,389.02,957.76,390.23L957.76,390.23z"/>
		</g>
	</g>
	<g>
		<g>
			<path class="st24" d="M949.63,426.62c-2.68,3.24-9.23,8.44-8.64,13.31c0.22,1.87,1.5,3.28,2.59,4.71
				c1.55,2.02,3.3,3.51,1.06,5.96c-1.12,1.22-3.57,1.76-5.01,2.55c-2.07,1.13-2.4,1.15-2.36,3.38c0.02,1.2,1.56,5.31,1.39,4.29
				c0.18,1.11-0.05,2.27,0.14,3.39c0.48,2.89,2.49,5.04,3.37,7.81c1.16,3.64,1.69,7.58,2.49,11.31c0.27,1.26,2.2,0.73,1.93-0.53
				c-1.15-5.39-2.12-10.44-4.37-15.43c-1.24-2.76-1.89-6.63-2.25-9.76c-0.39-3.41,2.28-3.4,4.99-4.9c2.72-1.51,4.44-2.51,3-5.59
				c-1.02-2.18-3.38-3.58-4.33-5.76c-1.88-4.31,5.06-10.47,7.43-13.34C951.86,427.05,950.46,425.63,949.63,426.62L949.63,426.62z"/>
		</g>
	</g>
	<g>
		<g>
			<path class="st24" d="M960.54,467.56c1.21,7.35,1.55,15.67,4.14,22.68c0.4,1.1,1.13,2.07,1.52,3.15
				c1.36,1.61,1.67,3.55,0.91,5.82c-0.38,0.25-0.7,0.56-0.96,0.91c-0.6,1.93-0.67,2.09,0.07,4.19c0.78,2.19,1.67,2.47,0.44,5.16
				c-0.57,1.24-1.73,2.34-2.45,3.53c-1.6,2.66-2.81,5.6-3.55,8.62c-1.4,5.65-1.16,11.43,0.44,16.99c0.35,1.23,2.29,0.71,1.93-0.53
				c-2.19-7.63-1.56-15.68,2.16-22.75c1.15-2.19,3.51-4.33,4.06-6.76c0.56-2.47-1.59-3.75-1.58-5.95c0.01-1.99,2.3-2.71,2.59-4.64
				c0.42-2.84-2.74-5.94-3.64-8.27c-2.67-6.91-2.94-15.41-4.14-22.68C962.26,465.76,960.33,466.3,960.54,467.56L960.54,467.56z"/>
		</g>
	</g>
	<g>
		<g>
			<path class="st24" d="M954.33,497.98c-1.12,2.23-1.94,4.5-2.05,7.03c-0.07,1.63,0.46,3.37,0.3,4.98
				c-0.21,2.16-1.74,3.97-2.51,5.93c-1.04,2.68-1.23,5.71-1.66,8.54c-0.3,1.99-1.58,5.46-0.88,7.43c0.67,1.87,3.65,2.94,3.35,5.13
				c-0.15,1.09-2.39,2.6-2.7,4.12c-0.52,2.53,0.84,4.95,1.76,7.23c1.51,3.72,3.03,7.44,4.54,11.16c0.48,1.18,2.41,0.66,1.93-0.53
				c-1.17-2.86-2.33-5.72-3.5-8.58c-0.64-1.57-1.72-3.5-2.1-5.15c-0.53-2.33,0.18-4.63,1.47-6.82c1.67-2.84,1.45-2.51-0.62-5.29
				c-1.73-2.32-1.76,3.06-1.91-4.45c-0.03-1.5,0.48-3.16,0.7-4.64c0.48-3.17,0.82-6.21,2.27-9.12c0.72-1.45,1.49-2.52,1.72-4.16
				c0.62-4.4-0.67-7.29,1.58-11.8C956.64,497.84,954.91,496.82,954.33,497.98L954.33,497.98z"/>
		</g>
	</g>
	<g>
		<g>
			<path class="st24" d="M940.33,512.59c-1.74,1.16-2.64,2.53-3.2,4.53c-0.47,1.65-0.53,3.39-0.96,5.06
				c-0.58,2.27-2.04,3.23-2.97,5.17c-0.72,1.49-1.18,2.71-0.42,4.37c0.97,2.12,3.98,2.63,4.17,4.82c0.08,0.96-0.62,1.76-0.78,2.66
				c-0.28,1.52-0.18,3.04-0.15,4.58c0.08,4.26,0.41,8.58,0.14,12.84c-0.27,4.34-1.89,8.23-1.96,12.53
				c-0.03,1.74-0.53,2.76-1.14,4.14c-0.4,0.91-0.74,0.94-0.91,1.96c-0.21,1.26,1.72,1.8,1.93,0.53c0.21-1.26,2.02-2.59,2.51-3.93
				c-0.06,0.16,0.25-10.28-0.29-5.93c0.22-1.79,1.09-3.53,1.42-5.31c1.19-6.42-0.42-12.92,0.26-19.33c0.53-4.97,2.62-4.29-0.57-7.92
				c-1.12-0.54-1.69-1.48-1.71-2.84c-1.26-1.61-1-2.95,0.76-4.04c0.66-0.94,1.15-1.58,1.55-2.7c1.15-3.17-0.02-7.23,3.34-9.45
				C942.41,513.61,941.41,511.88,940.33,512.59L940.33,512.59z"/>
		</g>
	</g>
	<g>
		<g>
			<path class="st24" d="M961.13,549.38c1.54,2.97,3.92,6.27,4.82,9.49c1.17,4.19-2.02,6.31-2.84,9.97
				c-0.42,1.89-0.01,3.16,0.38,4.94c0.52,2.34,3.25,1.64,0.09,5.87c-0.81,1.09-3.39,1.95-4.52,2.6c-1.12,0.64-0.11,2.37,1.01,1.73
				c1.98-1.14,5.29-2.23,6.47-4.35c2.03-3.64-2.38-7.77-0.88-11.67c1.06-2.77,3.25-4.87,2.75-8.02c-0.62-3.96-3.75-8.06-5.56-11.57
				C962.27,547.23,960.54,548.24,961.13,549.38L961.13,549.38z"/>
		</g>
	</g>
	<g>
		<g>
			<path class="st24" d="M922.89,590.66c4.35,2.7,8.95,5.84,6.45,12.01c-0.7,1.74-1.68,2.93-1.59,4.91
				c0.18,3.64,3.37,6.02,6.07,7.93c0-0.58,0-1.15,0-1.73c-4.73,2.72-2.16,9.19-1.4,13.45c0.22,1.27,2.15,0.73,1.93-0.53
				c-0.47-2.64-2.48-9.48,0.49-11.19c0.69-0.4,0.59-1.31,0-1.73c-1.39-0.98-3.86-2.51-4.42-4.19c-0.73-2.18,0.47-5.16,1.25-7.14
				c0.56-1.41,0.79-2.8,0.52-4.32c-0.8-4.41-4.75-7.02-8.28-9.2C922.8,588.25,921.8,589.98,922.89,590.66L922.89,590.66z"/>
		</g>
	</g>
	<g>
		<g>
			<path class="st24" d="M935.67,585.49c0.89,1.45,1.93,2.67,3.04,3.96c0.93,1.08,1.89,2.08,2.47,3.4c0.89,2.01,0.04,3.8-0.03,5.81
				c-0.04,1.23-0.31,2.04,0.09,3.29c1.01,3.16,3.11,2.5,1.54,6.54c-0.74,1.91-1.01,2.25-0.27,4.4c1.1,3.21,2.62,5.83,2.5,9.35
				c-0.09,2.78-1.44,5.29-1.74,8.04c-0.14,1.28,1.86,1.27,2,0c0.3-2.78,1.67-5.22,1.74-8.04c0.06-2.4-0.67-4.58-1.27-6.87
				c-0.43-1.63-0.76-1.91-0.86-3.78c-0.34-6.04-0.17,0.47,0.69-2.87c0.17-0.65,0.45-1.23,0.44-1.95c-0.05-1.95-1.76-2.85-2.37-4.49
				c-0.92-2.48,0.34-5.06,0.19-7.53c-0.26-4.24-4.37-6.92-6.41-10.26C936.73,583.38,934.99,584.39,935.67,585.49L935.67,585.49z"/>
		</g>
	</g>
	<g>
		<g>
			<path class="st24" d="M950.09,582.78c-0.1,4.1,1.49,7.58,3.06,11.28c1.48,3.48,2.35,6.49,1.69,10.29
				c-0.36,2.09-1.09,4.02-0.32,6.09c0.64,1.73,1.91,2.54,2.32,4.42c0.54,2.48-0.83,4.34-1.21,6.85c-0.8,5.26,0.53,10.65,1.8,15.73
				c0.31,1.25,2.24,0.72,1.93-0.53c-0.82-3.28-1.66-6.6-1.89-9.98c-0.26-3.98,0.96-6.68,1.88-10.35c0.68-2.72-0.6-3.02-1.83-5.16
				c-2.3-4,0.32-9.54-1.01-14.14c-1.43-4.94-4.56-9.15-4.43-14.49C952.12,581.49,950.12,581.5,950.09,582.78L950.09,582.78z"/>
		</g>
	</g>
	<g>
		<g>
			<path class="st24" d="M968.5,585.9c-1.81,0.92-3.67,2.08-4.09,4.22c-0.31,1.55,0.23,3.29,0.23,4.86c0,2,0.25,5.69-1.31,7.14
				c-0.95,0.88,0.47,2.29,1.41,1.41c1.53-1.42,1.54-3.41,1.72-5.39c0.15-1.69,0.23-3.36,0.09-5.05c-0.2-2.45,0.72-4.33,2.96-5.47
				C970.66,587.04,969.65,585.32,968.5,585.9L968.5,585.9z"/>
		</g>
	</g>
	<g>
		<g>
			<path class="st24" d="M931.07,635.52c0.12,2.01,0.33,1.26,0.79,3.18c1.16,4.85,0.76,4.79-0.91,8.7c-0.42,0.98-0.64,1.89-0.93,2.9
				c0.11,1.21-0.2,2.33-0.93,3.35c-0.32,0.23-0.63,0.46-0.94,0.7c-0.32,1.09,0.33,1.88,0.21,2.77c-0.14,1.02-1.8,2.23-1.98,3.86
				c-0.14,1.28,1.86,1.27,2,0c0.02-0.23,1.85-3.24,2.15-3.93c-0.13-0.32-0.28-0.63-0.44-0.94c-0.21-0.79,0.15-1.19,1.09-1.2
				c0.23-0.51,0.65-1.2,0.9-1.74c0.74-1.66,0.25-3.97,1.19-5.93c0.58-1.2,1.38-2.4,1.66-3.73c0.67-3.2-1.67-4.95-1.85-7.99
				C933,634.24,931,634.23,931.07,635.52L931.07,635.52z"/>
		</g>
	</g>
	<g>
		<g>
			<path class="st24" d="M948.02,642.82c0.96,1.88,2.53,4.09,2.37,6.18c-0.06,0.82-0.36,1.77-0.43,2.65
				c-0.18,2.09,0.03,3.62-0.87,5.59c-0.34,0.75-0.91,1.47-1.21,2.24c-0.5,1.29-0.7,2.06-0.2,3.39c0.45,1.2,2.38,0.68,1.93-0.53
				c-0.71-1.89,1.82-4.99,2.27-6.94c0.44-1.88,0.28-3.86,0.6-5.76c0.13-0.73,0.43-0.88,0.35-1.66c-0.19-1.87-2.27-4.58-3.08-6.18
				C949.16,640.66,947.43,641.67,948.02,642.82L948.02,642.82z"/>
		</g>
	</g>
	<g>
		<g>
			<path class="st24" d="M961.56,644.81c1.23,2.35,2.21,4.5,2.14,7.21c-0.04,1.53,0.5,5.68-0.46,6.71
				c-0.87,0.94,0.54,2.36,1.41,1.41c2.14-2.3,0.92-4.14,0.94-6.96c0.03-3.65-0.6-6.11-2.31-9.37
				C962.69,642.66,960.97,643.67,961.56,644.81L961.56,644.81z"/>
		</g>
	</g>
	<g>
		<g>
			<path class="st24" d="M940.74,651.75c0,1.18,0.16,2.58,0.02,3.75c-0.51,4.03-0.18,0.53-1.22,2.4c-0.53,0.95-0.95,1.47-1.15,2.62
				c-0.35,2.01-0.36,2.01-2.19,3.12c-1.49,0.9-2.83,2-4.1,3.18c-0.94,0.88,0.47,2.29,1.41,1.41c1.69-1.58,3.56-2.54,5.43-3.82
				c1.24-0.85,1.17-1.12,1.34-2.59c0.21-1.85,0.44-1.52,1.58-3.15c0.19-0.28,0.54-0.41,0.67-0.75c0.7-1.77,0.21-4.33,0.2-6.16
				C942.74,650.46,940.74,650.46,940.74,651.75L940.74,651.75z"/>
		</g>
	</g>
	<g>
		<g>
			<path class="st24" d="M972.26,339.64c-1.8,1.8-3.12,3.81-3.67,6.33c-0.31,1.44-0.08,1.58-0.25,3.02c-0.32,2.61-0.93,4.63-2.22,7
				c-3.08,5.65-2.64,12.35-3.14,18.65c-0.1,1.28,1.9,1.28,2,0c0.54-6.75,0.4-13.18,3.74-19.21c0.86-1.55,1.66-2.84,1.85-4.57
				c0.48-4.23-0.42-6.28,3.11-9.8C974.59,340.14,973.17,338.73,972.26,339.64L972.26,339.64z"/>
		</g>
	</g>
	<g>
		<g>
			<path class="st24" d="M950.29,350.29c0.65,3.45,1.14,5.5,0.1,9.28c-0.27,0.99-0.76,1.66-0.97,2.71
				c-0.45,2.26,0.78,1.25-0.12,4.66c-0.13,0.5-0.73,0.89-0.81,1.45c-0.2,1.47,0.74,1.96-0.1,3.62c-0.33,0.66-1.3,1.08-1.67,1.82
				c-1.46,2.92-0.82,7.63-1.02,10.82c-0.08,1.29,1.92,1.28,2,0c0.15-2.29,0.17-4.63,0.44-6.91c0.15-1.27,0.13-2.56,0.89-3.68
				c0.34-0.49,1.2-0.75,1.44-1.32c0.22-0.51,0.46-0.99,0.61-1.55c0.14-0.51-0.47-1.11-0.39-1.61c0.15-0.96,1.06-1.73,1.27-2.61
				c0.61-2.41,0.17-5.06,0.75-7.64c0.77-3.4,0.14-6.13-0.51-9.59C951.98,348.49,950.05,349.03,950.29,350.29L950.29,350.29z"/>
		</g>
	</g>
	<g>
		<g>
			<path class="st24" d="M931.69,354.89c0.74,1.48,1.67,2.96,2.24,4.51c0.64,1.75,0.07,2.83,0.09,4.52
				c0.03,2.08,1.43,3.81,2.68,5.33c0.82,0.99,2.23-0.43,1.41-1.41c-1.55-1.89-2.16-2.94-1.76-5.47c0.14-0.88,0.25-1.14,0.1-1.95
				c-0.39-2.23-2.06-4.52-3.05-6.53C932.84,352.73,931.12,353.74,931.69,354.89L931.69,354.89z"/>
		</g>
	</g>
	<g>
		<g>
			<path class="st24" d="M927.12,474.01c1.58,2.07,3.14,4.15,4.74,6.21c1.77,2.27,4.7,4.22,6.2,6.5c2.89,4.38,0.69,11-0.01,15.8
				c-0.18,1.26,1.74,1.8,1.93,0.53c0.67-4.62,3.02-11.78,0.53-16.22c-0.95-1.69-2.5-2.59-3.88-4.02c-2.89-2.98-5.27-6.51-7.78-9.8
				C928.07,472,926.34,472.99,927.12,474.01L927.12,474.01z"/>
		</g>
	</g>
	<g>
		<g>
			<path class="st24" d="M924.42,522.45c6.27-2.87,7.76-7.3,9.68-13.71c-0.64,0-1.29,0-1.93,0c0.23,1.01,0.46,2.03,0.69,3.04
				c0.14,0.62,0.94,0.93,1.47,0.6c0.66-0.42,0.95-1.16,1.51-1.53c2.68-1.74,5.41-0.86,8.2-0.11c0.34,0.09,0.73,0,0.97-0.26
				c2.44-2.57,1.17-8.33,1.19-11.5c0.01-1.29-1.99-1.29-2,0c-0.02,2.28,0.54,5.5-0.06,7.72c-0.69,2.53-2.55,1.33-4.73,1.14
				c-1.09-0.1-2.87-0.36-3.88,0.25c-1.03,0.62-1.22,1.93-2.22,2.56c0.49,0.2,0.98,0.4,1.47,0.6c-0.23-1.01-0.46-2.03-0.69-3.04
				c-0.23-0.99-1.66-0.91-1.93,0c-1.64,5.49-3.28,10-8.76,12.51C922.24,521.26,923.25,522.98,924.42,522.45L924.42,522.45z"/>
		</g>
	</g>
	<g>
		<g>
			<path class="st24" d="M945.04,562.27c1.48,3.92,1.73,7.84,0.65,11.9c-0.07,0.25,0.28,0.93,0.26,0.97
				c-0.77,1.63-3.17,1.56-4.63,2.31c-1.14,0.59-0.13,2.32,1.01,1.73c1.65-0.85,3.75-0.4,5.04-1.92c0.88-1.03,0.56-1.65,0.6-2.79
				c0.16-4.38,0.66-8.31-1-12.73C946.52,560.54,944.59,561.06,945.04,562.27L945.04,562.27z"/>
		</g>
	</g>
	<path class="st1" d="M1138.08,416.86c-0.02,1.82-0.03,3.64-0.05,5.46c0.3,0.78,0.62,1.68-0.28,2.18c-0.69,0.38-1.26-0.21-1.49-0.87
		c-0.59-1.69-0.26-3.46-0.94-5.16c3.23,9.88,0.45,20.07,2.11,30.03c0.4,2.37,0.46,4.6-1.18,6.63c-0.86,1.07-1.29,2.56-0.92,3.79
		c2.59,8.51-1.25,17.17,0.68,25.7c0.58,2.58,0.51,5.35-0.16,7.94c-0.73,2.85-0.81,5.62,0.28,8.32c1.91,4.73-0.07,9.49,0.11,14.26
		c0.55,15.03,1.4,30.09,1.48,45.1c0.04,7.4,1.16,14.81,0.44,22.22c-0.31,3.23,0.22,6.54,1.27,9.32c1.56,4.12,0.92,8,1.02,12.09
		c0.19,7.76-0.56,15.97,1.38,23.18c1.97,7.33,1.44,14.38,2.11,21.55c0.28,3.03-0.75,4.37-3.72,4.32c-1.3,0.04-2.6-0.06-3.86-0.42
		c-7.35-5.22-15.67-9.2-21.42-16.51c-1.84-2.05-2.7-4.37-1.9-7.13c0.87-1.82,1.88-1.49,2.91-0.16c0.71,0.92,1.06,2.04,1.67,3.02
		c4.08,4.53,4.55,4.57,9.05,0.85c0.16-0.41,0.32-0.81,0.42-1.24c-1.72-4.1-5.56-6.5-7.99-10.05c-1.73-2.52-2.71-4.62-1.11-7.72
		c1.66-3.21,1.23-6.78-0.03-10.17c-1.07-2.9-1.19-5.58,0.11-8.64c1.19-2.8,1.69-6.1-0.24-9.06c-0.91-1.39-0.9-2.91-0.28-4.3
		c1.85-4.2,1.32-8.45,0.52-12.72c-0.5-2.64-0.61-5.29-0.01-7.92c1-4.4,0.67-8.57-1.85-12.45c-0.73-1.13-1.4-2.47-0.79-3.77
		c2.75-5.9,1.7-11.81,0.86-17.93c-0.4-2.93,0.96-6.14,0.12-9.28c-0.26-0.98-0.88-1.78-1.22-2.71c-2.05-5.03-0.47-10.2-0.36-15.28
		c0.12-5.82,1.07-11.6-0.85-17.35c-0.78-2.32,0.68-4.56,1.17-6.79c1.37-6.19-0.61-12.18-0.67-18.26
		c-0.05-5.42-0.81-10.89,0.79-16.24c0.14-0.48,0.33-1.04,0.17-1.47c-2.86-7.42,2.71-14.55,0.74-21.95
		c-0.35-1.33,0.13-2.65,1.49-3.42c5.15-1.25,10.38-0.39,15.56-0.61c1.19,0.03,2.37,0.13,3.47,0.67
		C1137.76,414.63,1138.55,415.45,1138.08,416.86z"/>
	<path class="st0" d="M1116.9,632.63c-1.74-0.77-0.45-3.89-3.07-3.98c-0.44,0.14-0.85,0.09-1.24-0.17c-0.95-1.1-1.89-2.2-3.54-2.17
		c-1.44-0.25-1.27-2.01-2.42-2.56c-1.25-0.83-2.34-1.85-3.61-2.64c-4.33-2.68-7.09-1.85-9.51,2.89c-1.6,3.13-0.14,5.97,4.07,7.71
		c1.1,0.46,2.02,1.09,2.85,1.91c2.69,2.65,2.55,3.75-0.72,5.5c-0.58,0.31-1.2,0.56-1.81,0.81c-4.32,1.76-4.27,4.88-2.63,8.49
		c-0.18,0.75-0.62,1.33-1.18,1.83c-2.53,1.38-4.71,3.96-8.11,2.34c-0.43-6.75,0.32-13.54-1.86-20.24c-0.73-2.26,2.08-5.56,1.56-8.03
		c-1.93-9.19,2.23-18.3-0.09-27.41c-0.58-2.27,1.35-4.09,1.38-6.22c0.14-9.58,0.22-19.17,0.22-28.75c0-1.32-0.3-2.58,0.19-3.91
		c0.56-1.55,1.44-3.29,1.2-4.79c-1.39-8.69,0.88-17.43-0.54-26.06c-0.54-3.26,0.97-6.31,0.63-9.34c-1.09-9.51,1.41-19.09-0.83-28.53
		c-0.41-1.72,0.18-3.26,0.52-4.88c0.94-4.43,1.37-8.86-0.62-13.16c-0.07-0.15-0.27-0.32-0.23-0.43c2.44-7.16,0.36-14.4,0.42-21.6
		c0.02-1.61,1.24-3.3,1-4.81c-1.14-7.3-1.39-14.55-0.11-21.84c-0.92-7.4-0.22-8.13,8-8.41c2.09,0.17,4.31-0.04,6.48,1.81
		c-6.54,3.63-1.88,9.56-3.34,14.29c5.94,3.16,2.67,5.92,0.67,10.13c-1.49,3.14-3.25,8.97,2.39,12.18c1.17,0.66,2.14,2.64-0.6,3.7
		c-5.15,2-5.77,7.94-1.16,11.29c1.42,1.03,2.79,1.81,2.7,3.75c-0.08,1.67-0.09,3.52-2.58,3.31c-1.29-0.11-2.23,0.45-3.08,1.3
		c-0.62,0.72-1.72,1.27-1.12,2.49c2.99,6.13,2.73,12.21,0.61,18.63c-1.05,3.17-2.22,6.98,1.2,10.07c1.18,1.07,0.85,2.72-0.23,4.08
		c-3.53,4.43-3.92,8.9-0.96,13.55c1.49,2.34,0.85,4.29-0.2,6.52c-2.26,4.79-1.51,7.84,2.19,10.01c1.87,2.47,0.23,3.82-1.55,5.31
		c-3.43,2.87-3.81,9.37-0.91,13.18c0.41,0.26,0.74,0.6,1,1c0.73,3.52-2.85,6.07-2.15,9.59c0,0.93-0.03,1.87-0.08,2.8
		c1.18,1.55-3.4,3.75,0.58,4.99c0.4,0.24,0.69,0.57,0.9,0.98c0.68,1.91-0.35,3.42-1.02,5.1c-1.56,3.95-3.2,8.02-0.15,12.07
		c0.76,0.99,1.32,2.42,0.43,3.17c-3.37,2.84-1.44,6.86-2.55,10.18c-0.87,2.59,1.09,2.57,2.8,2.62c5.04,0.77,10.22-1.03,15.2,0.79
		c0.46,0.48,1.05,1.31,0.3,1.61c-5.61,2.25-1.9,3.97,0.28,5.74c4.06,3.29,7.53,7.41,13.11,8.5c1.47,0.29,3.06,1.55,1.93,3.71l0,0
		C1124.24,635.17,1120.57,632.48,1116.9,632.63z"/>
	<path class="st27" d="M1139.9,651.63c1.63-0.18,3.63,0.7,3.14-2.68c-0.57-3.92-0.2-7.98-0.13-11.98c0.05-2.71,0.16-5.33-2.33-7.25
		c-0.57-0.44-1.14-1.46-1.03-2.1c1.28-7.57-0.02-15.05-0.62-22.55c-0.17-2.14-0.28-4.34,0.89-6.34c0.41-0.7,0.76-1.45,0.23-2.33
		c-3.35-5.49-3.11-11.43-2.96-17.63c0.09-3.9-1.63-7.93-1.17-12.04c1.1-9.8,0.39-19.71-0.49-29.34c-0.57-6.31,0.37-12.63-0.53-19
		c-0.45-3.22-3-8.08,0.74-11.67c0.34-0.33,0.3-1.35,0.09-1.92c-3.47-9.75,0.47-19.94-1.76-29.78c-0.42-1.84-0.51-4.07,1.72-5.31
		c0.53-0.3,0.99-0.6,0.48-1.46c-3.07-5.18-4.3-10.35,0.27-15.45c0.32-0.36,0.15-1.27,0.05-1.89c-1.14-6.81-1.43-13.63-0.58-20.49
		c0.54-4.33-1.98-8.46-0.72-12.96c1.47,1.64,1.22,3.74,1.87,5.47c0.62,1.64,0.53-0.5,0.97-0.6c1.62,5.61,3.34,11.21,0.38,16.93
		c-0.22,0.42-0.41,1.05-0.26,1.45c3.4,8.63-1.16,17.75,1.64,26.39c0.44,1.36,0.34,2.63-0.08,3.91c-1.58,4.86-2.37,9.71,0.11,14.54
		c0.07,0.14,0.15,0.35,0.11,0.48c-2.44,7.42-0.06,14.98-0.64,22.43c-0.34,4.33-1.25,8.58,0.77,12.73c0.77,1.59,0.62,3.15,0.26,4.85
		c-0.92,4.27-1.2,8.59,0.31,12.82c0.58,1.64,0.59,3.26,0.16,4.91c-0.17,0.64-0.62,1.28-0.58,1.89c0.59,9.64,1.13,19.28,1.97,28.89
		c0.16,1.8,0.8,3.47,0.14,5.33c-0.38,1.07-0.68,2.38-0.42,3.43c2.09,8.68,0.2,17.73,2.55,26.37c0.54,1.98,0.64,3.91,0.21,5.92
		c-0.35,1.62-1.06,3.45-0.64,4.89c2.79,9.5-0.06,19.1,0.8,28.61c0.12,1.28-0.13,2.7,1,3.73c0.1,0.97-0.55,1.28-1.31,1.5
		C1142.55,654.13,1140.29,654.46,1139.9,651.63z"/>
	<path class="st28" d="M1062.97,362.66c-6.82-3.55,0.78-4.76,1.17-7.54c-2.08,0.12-6.17,1.31-2.53-3.12
		c0.38-0.46,0.71-1.61,0.51-1.78c-4.93-4.06,1.42-5.19,1.98-8.04c-3.64-1.42-4.39-3.72-0.95-6.23c2.88-2.1,2.98-5.89,1.77-7.35
		c-3.38-4.11,0.65-3.25,2.14-4.21c0.81-0.52,1.54-1.17,2.46-1.88c-2.06-1.29-3.35,1.67-5.17,0.46c-0.06-1.83,2.25-1.84,2.56-3.34
		c0.85-1.6,2.24-2.08,3.77-1.33c2.46,1.2,4.56,3.34,7.74,2.36c0.58-0.18,1.04,0.71,1.1,1.41c0.17,2.05-0.78,3.58-2.47,4.54
		c-3.39,1.92-6.08,4.55-8.21,7.78c-1.19,1.68-2.83,2.76-3.98,3.22c4.46-2.78,9.69-5.79,15.67-7.08c3.13-0.67,5.07,0.04,3.84,3.84
		c-2.32,1.2-4.65,2.4-7.58,3.16c2.87,2.1,2.98,3.98-0.44,5.35c1.53,0.89,2.99,1.2,4.57-0.03c0.93-0.72,2.21-1.15,3.08,0.07
		c0.8,1.12,0.21,2.36-0.63,3.14c-2.81,2.61-1.51,4.55,0.85,6.41c1.32,5.19-3.27,6.96-5.34,9.64c3.17-1.81,4.67-6.34,8.85-7.81
		c2.51,1.36,3.92,3.22,3.66,6.33c-0.13,1.49-0.38,3.35,1.33,4.44c0.4,0.21,0.76,0.46,1.12,0.73c4.4,1.97,6.21,1.43,8.06-2.42
		c0.57-1.18,1.11-2.39,2.41-2.98c0.5,0,0.88,0.22,1.16,0.63c0.83,2.16,0.69,4.62,2.04,6.63c0.76,2.86-1.34,3.64-3.25,4.79
		c-5.22,3.16-11.39,4.69-16.27,9.73c-0.63-4.43-3.65-8.09-6.78-8.47c-5.42-0.66-10.29-6.55-16.28-2.13
		c-0.92-0.03-2.24,0.39-2.55-0.7c-0.49-1.72,1.33-2.33,2.21-3.37c3.26-1.38,3.19-5.25,5.5-7.4c1.5-1.39,1.32-1.59,5.27-2.35
		c1.12-0.22,2.03-2.48,2.01-5.47c-2.04,1.07-3.59,2.3-4.58,4.17C1070.72,360.41,1067.51,362.57,1062.97,362.66z"/>
	<path class="st29" d="M1067.91,333.58c2.28-5.15,8.92-6.26,11.53-12.35c-2.99,1.51-5.2,1.51-6.98-0.48
		c-1.61-1.8-3.37-2.33-5.54-1.11c0.35-1.34-1.86-2.67-0.01-4.01c3.3,1.21,6.76,0.43,9.71,0.64c-1.13-0.39-2.68-0.09-4.25,0.08
		c-1.23,0.13-2.78,0.32-2.49-1.81c-0.87-5.97-2.15-11.95,0.01-17.92c1.02,0.79,1.15,1.98,1.27,3.11c0.23,2.13,0.89,2.9,3.46,2.82
		c3.66-0.11,0.87-4.04,3.27-4.56c0.05-0.01,0.45,0,0.03-0.08c-3.91-0.78-3.94-2.41-1.14-4.7c3.15-2.58,5.77-2.59,8.47-0.26
		c-1.65-3.02-2.9-6.2-1.17-9.78c1.03-1.59,1.46-3.3,1.26-5.21c-0.1-0.98-0.09-2.25,1.15-2.39c1.04-0.11,1.68,0.92,2.16,1.82
		c0.39,0.74,0.71,1.55,0.72,2.37c0.02,3.7,1.17,6.8,4.3,9.03c0.68,0.49,0.85,1.4,0.72,2.27c-1.19,1.3-2.55,1.95-4.37,1.14
		c0.96,2.38,3.39,2.41,5.17,3.41c0.29,0.38,0.49,0.8,0.63,1.25c-1.98,5.51,0.73,9.25,4.73,12.49c0.71,0.58,0.99,1.33,1.05,2.16
		c0.31,3.83,1.44,7.5,2.07,11.26c0.42,2.53,0.02,4.74-2.62,5.77c-2.86,1.12-3.69-1.37-4.91-3.05c-1-1.37-1.25-3.05-1.77-4.62
		c-0.06-0.66-0.8,0.24-0.19-0.02c0.14-0.06,0.13,0.1,0.22,0.43c0.3,1.16,0.59,2.41-0.6,3.15c-1.23,0.76-2.21-0.25-3.09-0.94
		c-1.68-1.32-3.26-2.78-4.94-3.95c1.49,1.63,4.25,2.85,3.32,5.73c-0.69,2.16-3.01,2.33-5.02,2.56c-2.84,0.06-5.51,0.6-7.67,2.63
		C1073.78,332.06,1071.68,335.1,1067.91,333.58z"/>
	<path class="st30" d="M1094.92,296.65c-0.02-0.32-0.03-0.65-0.04-0.97c-0.1-1.37,0.55-2.53,1.03-3.74
		c1.36-2.17,4.16-1.73,5.89-3.23c2.81,2.19,5.87,2.24,9.21,1.43c2.95-0.71,6.02-1.29,8.92,0.43c-2.24,4.53,0.47,9.49-1.33,14.18
		c-1.02,2.65-0.46,5.81-2.04,8.45c1.11-2.04,1.98-2.98,2.93,0.01c-0.12,1.79-0.86,3.35-1.77,4.85c-1.84,4.03-0.52,8.08,0.11,12.05
		c0.98,6.15,1.75,12.13-0.77,18.22c-1.11,2.68,3-2.01,2.49,1.23c0.37,0.94,0.35,1.89,0.09,2.85c-1.13,3.49-5.05,4.06-7.02,6.68
		c-1.6,0.77-3.46,0.82-4.99,1.79c-0.41,0.2-0.84,0.32-1.29,0.38c-0.46,0-0.88-0.14-1.26-0.4l-0.28-0.33
		c-1.38-1.91-0.13-2.98,1.24-4.08c4.5-3.61,2.95-8.68,3.09-13.3c0.03-1.22-1.17-0.17-1.78-0.56c-1.47-0.92-2.84-1.93-2.88-3.76
		c-0.05-1.88,1.26-3.34,2.94-3.5c3.87-0.38,3.2-3.08,3.18-5.48c-0.03-2.78-0.6-5.25-4.13-5.4c-1.09-2.74-1.81-5.59-2.71-8.39
		C1102.01,309.03,1098.04,303.04,1094.92,296.65z"/>
	<path class="st31" d="M1155.83,371.46c-9.1,2.67-10.36,10.54-12.01,18.14c-2.02,0.83-4.49,0.6-5.76,3.13
		c-0.69,1.38-2.43,1.5-3.27,0.06c-3.7-6.29-9.45-10.9-13.57-16.84c-0.24-2.91,1.62-3.41,3.91-3.43c6.14-0.06,7.4,5.92,11.28,9.09
		c-0.14-5.41,2.56-10.53,0.21-15.96c-1.07-2.47-0.24-5.27,0.24-7.88c0.4-2.19,1.48-3.42,3.8-1.86c1.21,0.82,1.78,0.39,1.93-0.93
		c0.13-1.62-0.07-3.28,0.65-4.81c0.4-0.55,1.02-1.12,1.57-0.54c2.96,3.17,4.95,2.62,6.52-1.32c1.27-3.18,3.31-2.45,5.37-0.7
		c1.51,1.41,3.55,2.45,3.54,4.95c-0.62,1.3-1.66,1.75-3.17,1.41c1.07,1.53,2.58,2.23,4.14,2.87c0.42,0.24,0.73,0.58,0.95,1
		c-0.09,0.8-0.6,1.25-1.3,1.53c-0.68,0.22-1.37,0.29-2.08,0.24c-0.76-0.07-1.48-0.29-2.14-0.69c-0.08,0.75,0.77,0.7,1.02,1.2
		c0.85,1.3,0.29,2.18-0.82,2.9c-0.25,1.88-3.17-3.32-2.61,0.99c0.07,0.56-1,1.27-1.49,0.89c-2.12-1.64-2.45,0.05-2.86,1.44
		c-0.54,1.86,1.04,2.11,2.19,2.71C1153.38,369.75,1155.61,369.02,1155.83,371.46z"/>
	<path class="st32" d="M1097.64,415.47c-0.49-0.02-0.99-0.06-1.48-0.05c-7.28,0.24-7.28,0.24-7.36,7.19
		c-5.67-9.1-2.92-19.85-5.68-29.58c-0.77-2.73-3.11-5.21-2.23-8.4c1.19-0.54,1.84,0.28,2.6,1.08c0.6-1.74-0.23-4.02,2.26-5.35
		c1.3,2.86,1.76,7.22,6.59,4.57c5.43,3.55,9.53,8.55,13.51,13.46c3.01,3.71,0.28,13.49-3.66,16.48
		C1100.71,415.38,1099.09,414.77,1097.64,415.47z"/>
	<path class="st33" d="M1147.86,677.77c0,0.78-0.19,1.47-0.97,1.85c-1.74,1.53-3.41,0.41-5.1-0.12c-7.85-2.5-14.43-7.22-20.99-11.98
		c-2.63-1.91-3.49-5.17-5.46-7.6c-1.12-2.78-2.43-5.48-3.17-8.41c-0.07-1.14-0.28-2.45,1.12-2.86c1.28-0.38,2.09,0.56,2.74,1.54
		c0.81,1.38,0.94,3.07,2.08,4.31c-1.01-1.22-1.21-2.75-1.73-4.16c-0.32-0.7-0.31-1.41-0.06-2.13c2.55-2.85,5.27-1.96,7.27,0.32
		c3.63,4.12,7.43,8.01,11.64,11.54c1.98,1.66,2.1,4.47,3.52,6.51c3.21,4.54,8.18,5.79,13.15,7.03c0.03,0.62,0.07,1.24,0.1,1.85
		c0.05,2.16-1.53,1.26-2.59,1.42C1148.83,676.96,1147.34,675.69,1147.86,677.77z"/>
	<path class="st34" d="M1121.97,376.55c3.83,2.17,6.49,5.52,8.76,9.13c1.42,2.26,5.16,2.58,4.78,6.52
		c-0.13,1.38,1.97,0.76,2.21-0.56c0.83-4.58,3.52-3.03,6.1-2.05c-1.89,7.3-2.09,14.75-1.59,22.19c0.22,3.32-1.57,4.36-4.14,5.07
		c-0.42-0.71-0.84-1.42-1.26-2.12c-0.99-1.5-3.28-0.46-4.18-2.13c0.59-10.31-2.87-18.43-12.55-23.15c-1.2-0.59-2.42-1.11-2.84-2.55
		c0.66-3.63,1.07-7.37,4.09-10.05C1121.55,376.75,1121.76,376.65,1121.97,376.55z"/>
	<path class="st35" d="M1159.01,316.56c2.84,4.25,5.29,8.63,4.81,14.01c-1.28,1.83-2.94,3.44-3.45,5.75
		c-0.29,0.4-0.67,0.6-1.16,0.63c-5.15-1.86-9.54-5.45-15.05-6.49c-2.31-0.88-4.69-1.41-7.16-1.66c-1.65-0.17-3.9-0.13-3.18-3
		c3.77-0.11,5.69-3.18,9.12-5.63c-3.61,1.57-5.01,4.61-7.94,5.51c-0.78-0.62-1.45-1.31-1.51-2.39c0.84-3.17,3.04-5.17,5.74-6.76
		C1145.83,313.73,1152.42,312.53,1159.01,316.56z"/>
	<path class="st36" d="M1091.98,385.68c-1.91,0.76-3.82,1.53-5.99,2.4c-0.14-2.29-0.26-4.24-0.38-6.18
		c-0.14-0.02-0.27-0.04-0.41-0.06c-0.17,2-0.34,3.99-0.62,7.24c-1.7-2.04-2.69-3.23-3.69-4.43c-0.62-7.74-6.68-12.71-15.95-13.07
		c0.53-1.32,5.32-3.3,7.05-2.8c1.25,0.36,2.91,0.56,3.58,1.44c2.34,3.1,4.75,3.21,7.07,0.56c1.78,1.24-1.49,6.15,3.56,3.7
		c1.06-0.51,1.13,0.58,1.24,1.45c0.19,1.6,0.57,3.18,0.97,5.33c0.59-2.12,1.13-3.12,3.03-3.86c4.89-1.89,9.47-4.58,14.21-6.85
		c1.4-0.67,1.17-1.83,1.28-2.95c2.01-0.72,3.8-0.32,5.38,1.09c0.9,1.98,0.72,3.64-1.38,4.75c-7.99,0.58-14.21,4.11-18.36,11.07
		C1092.47,384.93,1092.27,385.32,1091.98,385.68z"/>
	<path class="st37" d="M1085.06,283.72c-2.38,4.62,1.78,8.22,2.26,12.43c-3.42,0.34-2.23-5.71-5.76-3.94
		c-1.99,1-4.81,1.13-5.89,3.84c1.21,1.06,3.27,0.29,4.34,2.04c-0.87,0.44-2.41,0.78-2.51,1.36c-0.3,1.79,2.34,0.47,2.73,2.23
		c-2.27,0.89-4.49,1.82-6.76,2.62c-1.64,0.58-2.96,0.33-3.11-1.81c-0.14-1.96-0.31-3.91-0.46-5.87c2.07-5.12,2.71-10.91,6.99-15.01
		c0.67,0.07,1.22,0.48,1.81,0.74c-0.37-0.58-0.79-1.13-0.87-1.85c0.66-1,1.32-2,1.98-3.01c0.2,0.11,0.41,0.22,0.61,0.32
		c1.62,1.62,2.65,3.72,4.33,5.29C1084.86,283.31,1084.96,283.51,1085.06,283.72z"/>
	<path class="st38" d="M1118.87,313.56c-1.07-3.27-1.64,0.82-2.9-0.1c0.51-6.37,2.7-12.83,2.06-19.56
		c-0.12-1.23,0.69-2.55,1.91-3.34c0,1.3,0,2.61,0,3.91c-0.12-3.33,3.22-2.36,4.66-3.7c4.04-3.75,2.87,3.04,5.3,2.81
		c0.64,2.32-1.17,3.66-2.36,5c-1.63,1.85-2.78,3.39-0.59,5.5c-0.79,3.78-2.14,7.35-4.16,10.65
		C1121.29,314.99,1120.09,314.24,1118.87,313.56z"/>
	<path class="st39" d="M1151.87,284.62c3.44,2.5,2.98,6.9,4.93,10.12c-0.36,2.82-0.74,5.62-4.05,4.34c3.95-1.17,3.88,1.84,3.64,5.04
		c-0.12,1.52-0.67,2.9-1.13,4.32c-0.88,0.99-1.81,0.73-2.77,0.14c-1.55-1.67-3.43-2.86-5.4-4c-1.91-1.1-1.66-2.18,0.43-2.83
		c1.27-0.34,2.3,0.67,3.73,0.72c-1.27-0.2-2.16-0.94-3.26-0.94c-1.36-0.72-2.84-0.1-4.25-0.35c-1.96-2.78,0.54-6.19-1.28-9
		C1144.12,287.82,1147.28,285.33,1151.87,284.62z"/>
	<path class="st40" d="M1152.78,307.87c0.52,0.94,1.32,0.69,2.11,0.51c0.97,0.89,0.04,2.35,0.98,3.25c0.83,1.78,2.98,2.72,3.14,4.93
		c-6.77-1.12-13.52-1.94-20.06,1.09c-3.39-3.89-0.46-6.96,1.3-10.19c0.38-0.6,0.83-1.14,1.33-1.64c1.64-1.09,3.5-3.74,4.4,0.6
		C1148.52,305.62,1150.78,306.15,1152.78,307.87z"/>
	<path class="st41" d="M1085.97,652.6c2.98-0.08,5.13-2.32,7.86-3.03c0.76,2.52-1.38,4.21-1.91,6.39c-1.02,4.24-0.8,7.81,3.11,10.44
		c0.21,0.46,0.25,0.93,0.13,1.42c-0.32,0.57-0.69,1.29-1.29,1.39c-4.34,0.73-8.69,1.33-13.11,1.33c0.69-4.07,1.66-8.11,1.96-12.21
		C1082.92,655.69,1084.13,654.07,1085.97,652.6z"/>
	<path class="st42" d="M1151.92,673.59c-6.03,1.22-10.17-1.91-13.89-6.03c-1.13-4.61-3.68-9.02-1.99-14.03
		c2.48-0.74,2.59-0.75,2.98,1.91c0.49,3.41,0.66,6.88,2.26,10.15c0.03-4.39,1.2-8.36,3.61-11.94c0.3-0.28,0.6-0.56,0.9-0.84
		c3.32,0.45,3.1,3.03,3.09,5.33C1148.87,663.52,1149.75,668.68,1151.92,673.59z"/>
	<path class="st43" d="M1101.8,288.7c-0.73,2.46-3.11,2.83-4.93,3.91c-1.58,1-2.54,0.33-3.19-1.18c-0.09-0.48-0.02-1.23-0.3-1.38
		c-4.12-2.35-5.37-6.09-5.41-10.54c-0.01-1.08,0.02-2.34-1.61-3.42c0.53,2.95,0.88,5.6-1.31,7.63c0,0-0.28-0.2-0.28-0.2
		c-1.73-1.77-2.63-4.22-4.7-5.69c0,0-0.26-0.33-0.26-0.33c0.19-0.27,0.35-0.58,0.59-0.8c4.94-4.61,5.18-4.8,9.32,0.33
		C1093.29,281.45,1097.6,284.99,1101.8,288.7z"/>
	<path class="st44" d="M1080.77,670.54c1.39,0.26,2.48-0.05,3.31-1.36c1.02-1.6,2.93-2.2,4.21-1.11c2.55,2.18,4.47,0.35,6.62-0.39
		c1.77-0.12,3.82-3.81,5.25,0.42c-5.82,5.97-12.59,10.07-21.12,10.66c-1.36-0.73,1.56-2.82-1-3.17
		C1078.95,673.9,1079.86,672.22,1080.77,670.54z"/>
	<path class="st45" d="M1155.83,371.46c-1.28-1.45-3.31-0.34-4.66-1.29c-1.83-1.29-6.56-1.76-1.71-5.38
		c0.68-0.51,0.52-2.13,0.84-3.64c0.89,1.24,1.6,2.25,2.53,3.56c1.62-2.27-1.04-3.56-0.42-5.3c2.17,0.1,2.13,3.38,4.47,3.18
		c1.99,0.79,2.89,2.36,2.3,4.32c-0.43,1.42-1.56,0.57-2.55,0.13c1.32,1.17,2.91,1.99,4.17,0.83c1.29-1.19,1.87-3.08,1.57-5.01
		c-0.23-1.47-1.86-2.4-1.55-4.08c0.37-0.4,0.75-0.79,1.12-1.19c2.35-0.16,3.31,1.01,3.15,3.27c0.02,0.16,0.05,0.33,0.06,0.49
		C1165.55,371.07,1165.55,371.07,1155.83,371.46z"/>
	<path class="st46" d="M1165.08,360.88c-0.7-1.43-1.74-2.53-3.15-3.27c0,0-0.01-0.01-0.01-0.01c-1.96-1.17-3.22-2.63-2.19-5.09
		c-1.21-1.32-2.41-2.65-3.62-3.97c2.23-2.31,2.32-2.29,5.07,1.4c-0.1-1.29-0.97-2.05-1.83-2.76c-0.88-0.73-2.03-1.1-2.78-2.03
		c-0.73-0.91-1.55-1.88-0.81-3.09c0.54-0.89,1.5-0.59,2.19-0.19c2.97,1.73,2.05-2.26,3.68-2.46c0.47-0.18,0.9-0.11,1.29,0.21
		C1167.04,346.36,1166.4,353.58,1165.08,360.88z"/>
	<path class="st47" d="M1138.01,279.73c-0.86-3.1,0.67-5.3,3.12-6.63c2.91-1.58,3.99,1.51,5.55,2.94c1.94,1.77,3.53,3.9,4.27,6.52
		c-1.31,3.06-4.29,4.54-6.49,6.75c-0.93,0.94-1.8,0.35-2.13-0.89c-0.02-0.46,0.06-0.91,0.2-1.35c0.53-1.35,1.4-2.51,3.05-4.19
		c-2.93,1.69-3.56-0.49-4.82-1.23c-0.52-0.39-1.31-0.89-1.22-1.42C1140.2,276.26,1138.05,281.26,1138.01,279.73z"/>
	<path class="st48" d="M1126.01,303.92c-1.14-4.23-2.4,0.98-3.86-0.38c2.53-3.26,5.14-6.61,7.74-9.95c1.07-2.9,5.72-0.92,5.79-5.13
		c2.22,2.5-1.78,4.17,0.16,6.13c0.49,2.12,1.6,4.01,2.34,6.04c-0.36,0.93-1.1,1.47-1.97,1.85c-2.68-0.08-5.34,1.94-8.03,0.11
		c-0.1-0.28-0.09-0.63-0.22-0.9c-0.14-0.28-0.13-0.11-0.19,0.36C1127.65,303.04,1127.18,303.84,1126.01,303.92z"/>
	<path class="st49" d="M1137.72,300.65c-2.22-1.53-3.68-3.3-1.88-6.08c4.75-4.36,1.79-9.85,2.17-14.85
		c0.38-0.71,0.76-1.42,1.38-2.57c1.01,1.17,0.26,3.62,2.44,3.57c1.41,2.15-0.59,4.87,1.17,6.96l0-0.01
		c-1.21,1.43-0.18,3.17-0.66,4.71c-0.06,1.23-0.33,2.41-0.68,3.58c-0.65,1.63-0.32,3.6-1.76,4.95
		C1139.13,301.25,1138.4,301.2,1137.72,300.65z"/>
	<path class="st50" d="M1062.97,362.66c6.99-1.5,9-8.9,14.25-12.12c5.26,4.99,0.52,6.91-2.77,9.33c-0.89-0.83,0.94-1.88-0.39-2.68
		c-2.82,2.15-4.39,5.23-6.12,8.22c-0.7,1.21-0.99,3.39-3.34,2.08c0.52-1.03,1.04-2.05,1.56-3.06
		C1065.96,362.32,1061.73,367.51,1062.97,362.66z"/>
	<path class="st51" d="M1162.92,339.62c-0.29,0-0.58-0.01-0.87-0.02c-1.6-0.36-2.12-1.49-2.14-2.98c-1.53-2.71,1.58-4.28,1.61-6.6
		c0.77,0.19,1.54,0.37,2.3,0.56C1165.9,333.83,1165.59,336.84,1162.92,339.62z"/>
	<path class="st52" d="M1155.87,311.63c-1.2-0.82-0.81-2.12-0.98-3.25c0.07-0.65,0.07-1.32,0.22-1.95c1.5-6.13,1.49-6.16-4.51-7.41
		c3.19,0.1,5.38-1.17,6.21-4.28C1157.66,300.44,1156.6,306.02,1155.87,311.63z"/>
	<path class="st28" d="M1069.88,314.54c1.74,1.93,4.03,0.89,6.06,1.03c2.31,0.15,4,0.78,4.87,4.37c-3.16-2.67-5.67-3.94-9.04-2.61
		c-1.48,0.58-3.49-0.36-4.86-1.69C1067.91,315.26,1068.89,314.9,1069.88,314.54z"/>
	<path class="st53" d="M1141.75,292.43c0.33-1.61-0.59-3.55,1.25-4.75c0.08,1.4,0.66,1.67,1.7,0.71c2.09-1.93,4.16-3.89,6.24-5.84
		c0.31,0.69,0.61,1.38,0.92,2.07c-3.05,2.56-7.06,4.06-8.88,7.98C1142.54,292.87,1142.12,292.81,1141.75,292.43z"/>
	<path class="st54" d="M1077.83,280.5c1.61,0.91,3.06,1.93,2.88,4.49c-2.13-0.34-2.89-1.96-3.82-3.38
		C1077.2,281.24,1077.51,280.87,1077.83,280.5z"/>
	<path class="st55" d="M1127.91,632.62c-0.1-1.46-0.72-2.79-2.22-2.83c-7.94-0.22-11.01-8.12-17.3-10.95
		c-0.68-0.31-1.09-2.1-0.96-3.12c0.2-1.6,1.79-0.98,2.84-1.09c0.99-0.1,1.99-0.06,2.59-1.07c0.15-0.18,0.29-0.35,0.43-0.53
		c3.56-3.4,0.73-6.24-0.99-8.95c-1.54-2.44-4-4.43-2.45-7.79c0.79-0.6,1.71-0.78,2.65-0.91c3.81-0.78,2.95-3.22,1.36-5.07
		c-1.62-1.88-2.19-4.02-2.95-6.2c-0.9-2.59-0.85-4.83,1.52-6.69c2.5-1.96,2.28-4.08,0.3-6.4c-2.61-3.06-5.16-6.23-3.52-10.73
		c0.46-0.92,1.25-1.45,2.15-1.85c3.58-1.71,2.22-4.77,1.75-7.33c-0.4-2.25-1.61-4.34-2.07-6.62c-0.96-3.36,2.1-5.07,3.1-7.63
		c-0.02-4.97-0.83-9.94-0.2-14.92c-0.31-1.99-0.48-3.98,0.23-5.93c0.36-0.75,0.93-1.23,1.75-1.41c3.37,1.88,3.04,6.54,2.33,7.92
		c-2.5,4.87,1.59,9.08,0.28,13.8c-0.57,2.06,0.44,4.7-1.35,6.85c-1.36,1.63-1.01,3.18,0.31,4.89c2.23,2.89,3.26,6.48,2.28,9.9
		c-1.68,5.88-0.18,11.51,0.54,17.2c0.18,1.44-0.14,2.52-0.51,3.79c-0.71,2.42-3.22,4.52,0.43,7.43c1.34,1.06,0.35,6.36-0.97,9.04
		c-1.2,2.43-1.21,4.19-0.46,6.48c1.51,4.6,3.12,9.18-0.57,13.7c-1.02,1.25,0.02,2.79,1.11,3.99c2.57,2.82,5.08,5.68,7.56,8.57
		C1128.02,629.43,1130.09,630.58,1127.91,632.62z"/>
	<path class="st56" d="M1115.93,514.58c-0.34,0.34-0.68,0.69-1.03,1.04c-4.34-2.66-6.22-6.87-4.84-11.6
		c1.22-4.2-0.38-8.65,1.32-12.76c-0.08,0.1,0.08-0.21-0.26-0.15c-3.43,0.68-2.41-1.85-2.42-3.64c0.61-1.66,0.99-3.39,1.32-5.13
		c-0.11-5.28,0.8-10.53,0.33-15.8c-1.61-3.33,0.66-6.49,0.41-9.76c-0.04-0.51,0.74-1.28-0.06-1.46c-2.81-0.62-3.36-1.11-2.47-4.08
		c1.38-4.64,2.09-9.39,2.84-14.14c0.06-0.36,0.39-0.68,0.14-1.07c-0.05,0.32-0.18,0.62-0.4,0.88c-0.98,1.16-1.99,1.04-2.94,0
		c-1.01-1.1-1.43-2.88-0.49-3.65c5.34-4.41,3.79-10.51,4.33-16.11c0.08-0.84,0.27-1.64,0.69-2.38c0.97-1.14,2.2-1.22,3.54-0.88
		c0.52,0.19,0.86,0.56,1.01,1.1c1.31,4.13,0.46,8.41,0.65,12.61c0.05,1.13,1.33,3.78-1.91,4.17c-2.15,0.26-0.04,1.33,0.12,1.91
		c0.95,3.36,2.19,6.68-0.27,9.95c-0.19,0.26-0.45,0.65-0.39,0.89c0.84,3,1.55,5.5,0.41,9.12c-0.87,2.76-0.46,7.44,0.91,11.08
		c1.76,4.65-0.04,9.13-0.83,13.62c-0.19,1.08-1.13,2.38-0.63,3.29c3.98,7.13,0.76,14.65,0.93,21.92
		C1116.05,507.12,1116.03,510.9,1115.93,514.58z"/>
	<path class="st57" d="M1136.67,652.76c0.46,4.93,0.91,9.87,1.37,14.8c-2.58-8.32-11.2-11.61-15.47-18.58
		c-1.19-1.94-3.63-2.09-5.64-0.38c-1.79,0.31-2.6-1.14-2.49-2.25c0.37-3.6-0.51-7.41,1.53-10.78c5.41,6.79,13.72,9.91,19.9,15.73
		C1136.13,651.79,1136.83,652.04,1136.67,652.76z"/>
	<path class="st58" d="M1132.97,412.58c1.55,0.4,3.27,0.52,4.59,1.31c0.91,0.54-0.53,0.48-0.74,0.85c-0.95-0.07-1.91-0.14-2.86-0.2
		c-2.5-0.95-5.1-0.15-7.63-0.47c-3.4-2.56-4.15-6.54-5.39-10.23c-2.12-6.3-5.94-10.88-12.45-12.9c-1.4-0.37-2.89-0.63-3.07-2.48
		c0.98-1.69,2.78-1.74,4.39-2.17c2.28,0.82,4.82,0.57,7.05,1.65c7.58,4.97,11.8,12.17,12.87,20.97
		C1130.05,411.48,1131.12,412.03,1132.97,412.58z"/>
	<path class="st59" d="M1115.96,635.58c-0.31,3.05,0.99,6.14-0.5,9.19c-0.74,1.51,0.35,2.79,1.46,3.84
		c0.02,0.68,0.04,1.36,0.06,2.04c-0.36,0.34-0.74,0.38-1.14,0.07c-0.78-0.51-1.59-1.48-2.32-1.42c-0.83,0.07-0.36,1.29-0.4,2.02
		c-0.06,0.23-0.11,0.46-0.17,0.69c-1.53,5.46-4.58,9.94-8.89,13.58c-1.2,1.01-2.13,2.73-4.19,1.93c-1.74-2.41-3.23,2.63-4.97,0.16
		c0.01-0.32,0.02-0.65,0.03-0.97c1.26-3.02,5.29-3.29,6.42-6.44c2.3-2.77,4.42-5.66,5.88-8.99c4.39-4.75,6.68-10.11,4.75-16.66
		c-0.32-1.7-0.4-3.4,0.13-5.09c0.21-0.47,0.55-0.81,0.99-1.06c0.24,0.08,0.48,0.14,0.72,0.19
		C1113.84,631.18,1113.99,633.66,1115.96,635.58z"/>
	<path class="st60" d="M1136.67,652.76c-0.27-0.48-0.54-0.97-0.81-1.45c1.35,0.11,2.69,0.21,4.04,0.32c1.5,1.09,3.19,1.72,5,2.05
		c1.24,2.07-0.35,3.38-1.28,4.89c-1.23,2-0.43,4.23-0.68,6.34c-0.14,1.19,2.09,3.2-0.73,3.45c-1.76,0.15-2.93-1.46-3.2-3.27
		c-0.43-2.94-0.73-5.91-1.07-8.87C1137.79,654.96,1138.3,653.47,1136.67,652.76z"/>
	<path class="st55" d="M1116.9,632.63c3.67-2.43,7.34,1.13,11.01-0.01C1123.41,638.29,1121.74,638.29,1116.9,632.63z"/>
	<path class="st34" d="M1125.89,413.58c2.65,0.7,5.55-0.7,8.08,0.95c-5.67,0.15-11.34,0.3-17,0.45c-0.09-0.16-0.13-0.34-0.1-0.53
		c0.51-2.38,2.54-1.86,4.14-2.19C1122.76,412.23,1124.47,412.36,1125.89,413.58z"/>
	<path class="st2" d="M1110.94,482.65c0.06,1.73-0.04,3.43-1.07,4.93c-1.08,0.48-2.27,0.15-3.4,0.48c-6.58,1.92-8.26,0.82-7.95-5.72
		c0.11-2.34-1.36-4.41-0.63-6.73c-0.08-1.96,0.43-3.26,2.83-2.88c0.67,0.11,2.06,2.58,2.09-0.36c0.01-1.16,0.82-2.51-1.72-3.19
		c-3.95-1.05-5.78-9.54-3.32-12.87c1.41-1.91,3.22-1.97,5.32-0.77c-0.11-0.78-0.06-1.27-0.2-1.32c-8.2-3.2-2.75-10.24-4.31-15.29
		c-0.37-1.2,0.3-1.94,1.42-2.13c1.26-0.21,3.1,0.86,2.9-1.86c-0.19-2.56-1.93-2.22-3.56-2.33c-0.48-0.03-0.95-0.17-1.71-0.31
		c1.55-3.48,1.75-7.01,0.78-10.53c-0.9-3.25-1.17-5.92,3.52-5.8c-1.43-0.16-2.87-0.33-4.3-0.49c1.42-0.32,2.85-0.63,4.27-0.95
		c1.07-0.49,2.26-0.59,3.34-1.05c2.63-0.12,5.35-0.89,7.66,1.15c-0.14,4.79,0.18,9.57-0.79,14.37c-0.33,1.62-0.28,2.61-2.01,3.12
		c-1.63,0.47-2.49,1.69-2.01,3.44c0.15,0.55,0.8,1.39,1.2,1.37c2.1-0.09,1-2.48,2.31-3.46c1.58,7.79-1.84,14.91-2.74,23.24
		c1.22-1.57,1.84-2.36,3.26-4.18c-0.79,4.35,0.87,7.64-1.27,10.68c-0.92,1.31,0.85,1.53,1.02,2.41c-1.33,1.33-2.13,2.86-2.17,4.81
		c-0.04,2.02-0.99,3.05-3.31,2.19c1.77,2.58,4.57,4.64,3.15,8.24C1110.66,480.92,1112.04,480.82,1110.94,482.65z"/>
	<path class="st61" d="M1097.9,475.61c0.87,2.25,3.13,4.07,1.17,7.08c-0.82,1.27-0.4,3.52,1.52,4.78c1.84,1.2,3.62,1.03,4.99-0.31
		c1.8-1.76,2.92-0.32,4.28,0.42c-0.22,1.23-1.71,3.46,1.55,1.96c0.16,0.39,0.46,0.78,0.46,1.18c0.04,3.96,1.1,8.33-0.21,11.79
		c-2.12,5.61,0.51,9.17,3.24,13.11c-0.01,2.33-0.02,4.66-0.02,6.99c-1.31,1.54-2.58,3.18-5,2.29c0.15-3.13,0.59-6.04-0.5-9.38
		c-1.14-3.5-3.35-3.42-5.51-3.4c-2.75,0.04-3.74,2.2-3.72,4.87c0.05,4.71,1.13,6.08,5.65,6.58c1.54,0.17,2.87,0.68,4.05,1.66
		c4.14,2.71,4.81,6.96,5.04,11.4c1.2,3.5-4.19,4.5-3.03,7.99c-2.48-0.13-1.95-2.4-2.7-3.76c-0.56-2.13-0.38-4.37-0.09-6.44
		c0.28-2.02-1.15-1.87-2.01-2.31c-2.17-1.12-3.05,2.8-5.71,1.56c-0.68-0.32-0.47,2.26-0.5,3.52c-0.03,1.34-0.12,2.66-0.56,3.93
		c-0.14,0.19-0.29,0.37-0.43,0.56c-1.73-0.28-5.21,0.08-4.87-0.93c1.04-3.1-1.49-6.41,0.55-8.93c2.52-3.11,3.63-5.52-0.63-7.94
		c-1.12-0.64-1.05-1.96-0.57-3.14c0.84-2.08,0.82-4.26,0.28-6.34c-0.58-2.19-0.62-3.49,2.28-3.45c2.15,0.04,2.56-1.95,1.42-3.06
		c-4.93-4.83-2.14-10.02-0.88-15.01c1.19-4.71,1.24-9.16-1.48-13.25C1094.14,476.88,1094.74,475.75,1097.9,475.61z"/>
	<path class="st62" d="M1109.86,560.57c-0.67,4.42,1.65,7.51,4.57,10.35c2.21,2.15,1.91,4.32,0.09,6.58
		c-1.05,1.3-4.12,1.39-3.09,3.83c1.1,2.6,0.35,5.98,3.31,7.83c2.17,1.36,1.64,3.74,1.56,5.69c-0.08,2.07-2,1.73-3.46,1.7
		c-0.73-3.06-0.72-3.11-2.09-3.55c-2.62-0.84-1.42-3.87-3.09-5.27c-2.5-2.1-8.01-0.49-8.74,2.75c-0.48,2.13-0.95,4.16-2.44,5.83
		c-0.2,0.12-0.41,0.23-0.61,0.35c-2.74-2.51-3.12-9.1-0.37-13.01c1.15-1.64,1.46-3.19,1.39-5.01c2.63-1.91,5.77-0.49,8.59-1.3
		c1.75-0.51,3.79-0.58,4.2-2.77c0.14-0.75,2.33-4.32-1.7-2.04c-0.69,0.39-1.36,0.01-1.57-0.66c-1.84-5.91-5.37-3.41-8.72-1.78
		c-0.88,0.43-1.7,1.06-2.76,0.56c-1.23-4,2.64-6.48,2.97-10.01C1101.87,558.34,1105.86,558.38,1109.86,560.57z"/>
	<path class="st63" d="M1094.91,648.63c-4.12-5.36-3.59-6.34,6.67-12.06c-2-1.62-2.97-4.26-6.29-4.03
		c-3.44,0.24-2.96-3.42-3.58-5.08c-1.41-3.79,2.09-6.08,4.4-8.49c1.81-1.89,3.7-1.67,5.69,0.01c1.94,1.65,4.08,3.07,6.13,4.59
		c-2,2.48-4.1,1.07-6.21,0.19c-1.9-0.79-3.97-1.41-5.3,0.71c-1.1,1.75-0.1,2.94,1.63,3.9c2.04,1.13,5.76-1.27,6.28,2.98
		c0.22-0.09,0.1-0.28,0.1-0.41c0.06-1.31,0.73-2.57,1.99-2.27c1.77,0.42,1.52,2.27,1.58,3.72c0.03,0.66-0.13,1.31-0.3,1.95
		c-0.67,1.79-1.5,3.48-2.87,4.86c-2.05,2.37-5.17,3.81-6.13,7.12c-0.07,0.44-0.2,0.86-0.4,1.26c-0.55,0.74-1.32,1.14-2.18,1.38
		C1095.68,649.02,1095.28,648.9,1094.91,648.63z"/>
	<path class="st64" d="M1109.99,540.64c1.51,0.9,0.3,3.1,1.88,3.97c1.79,3.6,3.55,7.16,3.06,11.42c-0.23,2.06-0.75,3.5-3.1,3.51
		c-1.13-1.18-1-2.72-1.22-4.17c-0.53-3.47-2.82-5.17-6.09-5.29c-3.49-0.13-6.09,1.22-6.48,5.22c-0.18,1.79-0.23,3.63-1.09,5.29
		c-6.06,0.11-1.98-4.67-2.56-6.69c-0.81-2.8-1.36-7.74,4.15-8.8c1.47-0.28,1.38-2.08,1.34-3.43c0,0,0.04-0.09,0.04-0.09
		C1103.05,538.89,1106.58,540.34,1109.99,540.64z"/>
	<path class="st65" d="M1112.85,613.57c-5.65,0.02-11.31,0.04-16.96,0.06c-1.87-2.38-1.12-5.1-0.91-7.69
		c0.47-5.7,1.76-6.45,7.26-4.86c3.47,1.01,7.17,1.26,9.98,4.06c2.73,2.72,3.84,5.34,0.62,8.4
		C1112.84,613.53,1112.85,613.57,1112.85,613.57z"/>
	<path class="st62" d="M1112.84,613.53c0.86-6.75-1.7-9.7-8.8-10.11c-0.33-0.02-0.67,0.03-0.98-0.04c-6.59-1.65-7.09-1.25-7.16,5.75
		c-0.01,1.5,0,3-0.01,4.5c-2.87-0.62-4.56-1.82-2.66-5.02c0.39-0.67,0.78-1.7,0.54-2.31c-1.18-2.95-1.04-5.24,2.11-6.91
		c0.98-0.52,0.44-1.79,0-2.71c0,0,0.1-0.11,0.1-0.11c4.67-1.43,9.34-3.93,13.96,0.13c0.53,2.57,1.36,4.8,3.54,6.67
		c2.29,1.97,2.65,5.23,3.11,8.06C1117.09,614.51,1114.38,613.3,1112.84,613.53z"/>
	<path class="st66" d="M1096.94,560.59c-1.54-7.43,0.41-11.15,6.21-11.83c5.19-0.61,8.63,2.46,8.71,7.8c0.02,1-0.02,1.99-0.03,2.99
		c-0.66,0.35-1.31,0.69-1.97,1.04c-3.99,0.02-7.98,0.04-11.97,0.06C1097.58,560.62,1097.26,560.6,1096.94,560.59z"/>
	<path class="st67" d="M1094.92,570.65c2.75-1.33,4.58-3.5,8.54-3.6c4.84-0.12,4.56,1.11,3.12,4.52c2.27-0.01,1.85-3.22,3.96-2.4
		c1.04,0.41,1.71,1.7,1.1,2.43c-1.53,1.84,1.36,5.12-2.46,6.24c-4.1,1.21-8.17,0.88-12.29,0.81c0,0-0.01-0.01-0.01-0.01
		c-1.59-1.31-0.53-3.66-1.96-5.04C1094.92,572.61,1094.92,571.63,1094.92,570.65z"/>
	<path class="st68" d="M1106.85,634.65c0-1.73,0-3.46,0-5.43c-2.71,1.02-1.34,3.25-2.66,4.99c-0.14-2.8-0.51-4.49-3.82-4.17
		c-1.45,0.14-4.93,0.96-5.49-2.67c-0.29-1.88-0.72-3.8,1.06-4.93c2.28-1.45,4.75-1.27,6.87,0.56c1.62,1.39,3.33,1.08,5.11,0.57
		c0.31,0.7,0.62,1.4,0.93,2.1c1.92,0.55,3.38,1.52,2.73,3.81C1110.89,631.96,1110.5,634.83,1106.85,634.65z"/>
	<path class="st69" d="M1094.91,648.63c0.33,0.01,0.67,0.02,1,0.03c0.64,2.39,1.95,4.91,1.51,7.19c-0.88,4.48,1.69,4.74,4.77,4.91
		c-1.08,3.61-4.52,4.34-7.25,5.95c-4.05-0.46-5.3-3.24-4.93-6.71c0.4-3.72,0.81-7.6,3.82-10.43
		C1094.19,649.26,1094.55,648.95,1094.91,648.63z"/>
	<path class="st70" d="M1106.85,634.65c2.94-2.49,5.9-4.97,2-8.98c2.89-1.31,3.67,0.59,4.24,2.79c-0.14,0.14-0.28,0.29-0.41,0.44
		c-0.71,5.37-2.48,10.03-8.11,12.11c-1.14-0.56-1.53-1.32-0.63-2.41C1104.92,637.29,1105.88,635.97,1106.85,634.65z"/>
	<path class="st62" d="M1094.92,573.6c2.33,1.03,1.91,3.12,1.96,5.04C1088.26,580.06,1096.36,574.97,1094.92,573.6z"/>
	<path class="st71" d="M1107,324.65c2.43-1.78,3.78-1.72,4.43,1.78c0.43,2.34,0.52,4.64,0.36,6.91c-0.12,1.78-0.03,4.21-3.47,3.01
		c-1.57-0.55-3.26,1.12-2.76,2.94c0.28,1.02,1.21,3.73,3.47,1.47c0.73-0.73,1.16-0.33,1.45,0.28c2.05,4.29-0.55,13.68-4.67,16.8
		c-0.94,0.72-0.85,1.72-0.99,2.69c-2.16,2.7-1.33,7.86-6.98,7.74c-2.41-0.05-4.25,0.06-4.94-2.65c0.23-0.48,0.93-0.32,1.13-0.83
		c-0.42,0.22-0.8,0.5-1.12,0.85c-5.52,1.84-0.54-4-3.14-4.29c1.88-2.94-1.06-4.54-1.88-6.73c0.37-4.03,1.21-5.66,5.06-10.02
		c-3.17-0.16-5.09,1.78-6.51,4.54c-0.67,1.3-1.16,2.81-2.75,3.38c-9.1-2.83-0.32-6.04,0.08-10.51c-3.31,4.23-6.98,2.59-10.47,2.85
		c0.3-2.95,3.81-2.33,4.91-4.53c-1.43-1.16-3.22-2.09-3.69-4.89c3.7,3.19,5.84-3.09,9.39-0.81c1.42,0.05,2.53,0.85,3.56,1.65
		c2.83,2.19,5.73,2.43,8.79,0.6c1.85-0.8,2.96-2.52,4.52-3.67C1105.03,331.94,1104.01,326.83,1107,324.65z"/>
	<path class="st72" d="M1096.93,337.71c-5.92,2.79-7.47,2.43-13.03-3.09c0.54-3.05-0.9-3.66-3.54-2.93
		c-6.18,1.71-11.64,5.04-18.28,8.28c1.4-3.52,5.03-3.73,5.83-6.38c3.07-0.54,5.48-2.37,7.95-4.09c2.42-1.69,5.5-1.53,8.05-2.87
		c1.69-0.08,3.81-0.12,4.44-1.68c0.74-1.81-1.47-2.75-2.56-3.87c-1.14-1.18-2.62-2.02-3.41-3.69c4.69,0.67,7.59,4.12,10.85,6.89
		c1.49-2.25-0.76-3.86,0.16-6.22c1.59,2.85,2.89,5.4,4.43,7.8c0.6,0.93,0.96,2.72,2.92,1.78c1.57-0.75,2.3-1.9,2.04-3.59
		c-0.68-4.37-2.2-8.55-2.45-13.06c-0.07-1.22-3.32-0.99-3.95-3.82c-0.78-3.51-4.02-6.53-1.45-10.52c2.29-0.12,2.66,2.22,3.15,3.32
		c2.33,5.21,5.78,9.97,6.77,15.75c-0.72,2.83,0.74,5.47,0.68,8.27c-0.07,3.51-0.95,6.24-4.98,6.74c-3.61-0.28-6.88-2.3-10.59-2.16
		c-1.27,0.05-2.95-0.43-3.49,1.08c-0.46,1.27,0.61,2.49,1.36,3.55c1.01,1.43,2.65,1.86,4.21,2.4
		C1093.72,336.19,1095.69,336.12,1096.93,337.71z"/>
	<path class="st73" d="M1083.69,352.51c0.72-2.41,2.21-4.43,3.32-6.63c1.39-2.74,3.98-2.3,6.1-3.06c0.8-0.29,1.17,0.99,0.36,2.41
		c-1.8,3.16-3.72,6.26-5.59,9.38c-3.69,3.5-7.38,7.01-11.06,10.51C1078.27,360.39,1084.09,358.2,1083.69,352.51z"/>
	<path class="st74" d="M1111.77,368.77c-1.69-0.1-3.35-0.32-4.84-1.19c-3.24-1.53-1.86-4.31-1.83-6.73c0.2,0,0.41-0.01,0.61-0.03
		c1.26,2.97,3.65,4.69,6.52,5.87C1112.5,367.48,1112.42,368.19,1111.77,368.77z"/>
	<path class="st72" d="M1093.69,291.43c1.06,0.39,2.12,0.79,3.19,1.18c-0.66,1.02-1.33,2.04-1.99,3.06
		c-5.33,1.87-5.06-2.61-6.34-5.51C1090.22,291.1,1091.87,291.62,1093.69,291.43z"/>
	<path class="st28" d="M1083.9,326.62c-2.16,2.42-5.34,1.99-8.05,2.87C1077.97,326.94,1080.9,326.68,1083.9,326.62z"/>
	<path class="st75" d="M1118.72,352.61c0.09-0.99,0.17-1.99,0.26-2.98c0.09-6.67-0.43-13.34-0.29-20.02
		c3.64,0.57,5.36,2.87,5.76,6.37c-0.96,1.4,0.23,2.42,0.57,3.64c1.07,3.91,1.46,7.81-0.73,11.57c-0.93,1.6-1.1,3.47-1.39,5.28
		c-0.29,1.36-0.8,2.65-1.06,4.02c-0.24,2.12,0.17,4.44-1.86,6c-3.46,2.16-5.87,1.02-7.57-2.38c-1.11-3.2,1.57-4.2,3.34-5.74
		c0.69,0.72,1.19,1.54,1.19,2.71c0.53-1.28-0.52-1.74-1.01-2.44C1115.71,356.1,1119.52,355.43,1118.72,352.61z"/>
	<path class="st38" d="M1118.96,329.58c0.29,3.37,1.32,6.67,1.62,9.96c0.3,3.29-1,6.72-1.6,10.1c-1.92-0.53-1.18,2.04-2.83,2.08
		c-0.23-2.03-0.49-4.21-0.74-6.39c4.5,0.64,1.16-2.24,1.54-3.45c2.18-7.02-1.82-13.64-1.44-20.58c0.09-1.58-0.35-2.89,1.36-3.68
		C1120.53,321.08,1121.14,325.09,1118.96,329.58z"/>
	<path class="st76" d="M1118.96,329.58c-0.03-4.11-0.25-8.18-2.09-11.97c0.67-1.35,1.33-2.7,2-4.04c1.02,0.02,2.63-1.79,2.8,0.89
		c0.71,2.17-0.4,4.2-0.49,6.32c-0.1,2.29,0.54,4.2,2.32,5.68c0.83,0.8,1.96,1.24,2.7,2.15c0.55,2.6,1.27,5.2,0.29,7.87
		c-0.79,0.54-1.43,2.53-2.5,0.26C1123.89,333.23,1120.42,332.11,1118.96,329.58z"/>
	<path class="st38" d="M1118.72,352.61c2.21,3.45-0.97,4.44-2.76,6.07l0.01-0.01c-0.74,1.84-3.56,2.45-3,5.06
		c0.78,1.4,0.27,2.28-1.12,2.81c-4.71,0.94-6.47-1.28-6.14-5.73c0.37-0.08,0.73-0.17,1.1-0.25c2.82,2.47,3.58-0.58,4.99-1.86
		C1112.85,355.24,1117.16,355.49,1118.72,352.61z"/>
	<path class="st77" d="M1099.54,329.88c3.84-0.34,5.45-2.05,4.65-6.19c-0.5-2.57-1.38-5.48,0.66-7.97c0.98,2.91,2.52,5.69,2.15,8.93
		c-1.08,3-0.82,6.52-3.89,8.74c-0.88,0.64-1.4,0.45-2.14,0.27C1099.59,332.74,1098.98,331.53,1099.54,329.88z"/>
	<path class="st38" d="M1117.01,295.97c-0.05,0.98-0.03,1.97-0.17,2.94c-0.16,1.16-0.91,1.81-2.04,1.33
		c-0.92-0.38-0.98-1.37-0.37-2.04c1.22-1.33,1.97-2.68,0.72-4.31c-0.66-0.86-1.21-1.58-0.21-2.48c0.22-0.2,0.63-0.42,0.86-0.34
		c1.23,0.4,1.03,1.5,1.07,2.45c0.03,0.82,0.01,1.64,0.01,2.46C1116.92,295.96,1116.97,295.96,1117.01,295.97z"/>
	<path class="st74" d="M1111.8,358.71c0.43,2.37-1.23,3.99-2.72,4.94c-0.77,0.49-2.07-1.55-2.27-3.08
		C1107.97,358.59,1109.61,357.91,1111.8,358.71z"/>
	<path class="st78" d="M1119.74,365.5c1.96-1.29,0.4-3.35,1.07-4.93c0.81-2.04,2.09-2.71,4.47-2.58c6.16,0.33,7.08-0.53,8.56-6.25
		c0.34-1.33,0.97-3.13,2.39-2.42c2.21,1.11,5.58-0.57,6.8,2.86c0.39,1.09,0.03,2.33,0.79,3.3c0.03,1.3,0.43,3.06-1.21,3.39
		c-1.86,0.37-2.19-2.16-4.37-3.22c-1.62,9.59,2.56,19.01-1.15,28.14c-2.05-1.96-5.43-2.79-5.9-7c-0.25-2.27-3.49-2.11-5.28-3.21
		c-0.82-1.78,0.49-3.04,1.1-4.47c1.02-2.34,0.52-4.05-2-4.95c-0.91-0.9-0.91-0.9-1.69,1.67c-0.43,0.63-0.99,1.08-1.74,1.29
		C1120.51,367.11,1119.48,367.04,1119.74,365.5z"/>
	<path class="st79" d="M1143.82,355.49c-0.5-4.64-5.13-3.45-7.66-5.23c-0.96-0.68-0.98,1.17-1.27,2.02
		c-0.72,2.14,1.83,6.07-2.52,6.13c-2.51,0.04-4.7,2.16-7.36,0.76c-1.67-0.88-2.99,0.35-4.2,1.4c0.36-1.32,0.72-2.64,1.08-3.96
		c1.96-4,6.97-3.86,10.19-7.06c-2.17-1.18-4.97,0.27-5.77-2.42c-0.44-1.5-0.64-2.95,1.18-3.74c2.46,1.34,4.13,0.96,4.53-2.13
		c0.8-0.58,1.7-0.67,2.64-0.61c4.55,0.58,7.05-1.84,8.09-7.86c2.97-2.3,5.2-0.79,7.31,1.4c-0.81,5.64-3.83,10.42-6.11,15.49
		C1143.91,351.62,1143.87,353.55,1143.82,355.49z"/>
	<path class="st78" d="M1143.96,349.69c-0.23-5.83,3.75-10.01,5.85-14.93c3.83-2.1,6.42,1.72,9.75,2.03c0,0,0.34-0.17,0.34-0.17
		c0.71,0.99,1.43,1.99,2.14,2.98c-0.8,1.42-1.84,2.79-0.35,4.54c-2.39,0.33-3.57-1.35-5.54-1.55c2.78,3.19,6.64,5.57,7.17,10.28
		c-0.95,0.74-1.23-0.27-1.63-0.88c-0.36-0.55-0.55-1.25-1-1.7c-1.26-1.24-2.09-3.76-4.6-1.76c-1.31-0.49-3.72-3.31-3.64,0.04
		c0.09,3.56-3.48,2.9-3.91,5.16C1147.08,352.32,1144.71,351.93,1143.96,349.69z"/>
	<path class="st80" d="M1160.81,358.8c1.58,1.59,3.63,2.75,3.11,5.68c-0.85,4.75-2.45,5.68-7.03,3.7c-0.8-0.35-1.74-0.38-2.78-0.6
		c1.78-1.2,2.74-1.38,4.72-0.84c-0.71-1.5-1.34-2.82-1.96-4.14c0.11-0.69,1.09-1.31,0.19-2.09c-0.65-1.98,1.42-1.01,1.91-1.76
		C1159.59,358.76,1160.2,358.78,1160.81,358.8z"/>
	<path class="st34" d="M1124.87,363.62c3.99,0.49,5.13,2.26,3.53,5.7c-0.69,1.49-1.66,2.85-2.5,4.26c-1.99,0.09-4.37-0.34-3.94,2.97
		c0,0-0.08,0.07-0.08,0.07c-0.43,0.37-0.92,0.54-1.49,0.5c-2.82-1.41-4.82-2.95-0.92-5.49
		C1125.58,371.86,1123.79,366.78,1124.87,363.62z"/>
	<path class="st45" d="M1159.73,352.5c0.73,1.7,1.46,3.39,2.19,5.09c-4.13,0.67-5.48-2.02-6.55-5.49
		C1156.97,352.08,1158.26,354.34,1159.73,352.5z"/>
	<path class="st45" d="M1158.97,358.75c-0.64,0.59-1.27,1.18-1.91,1.76c-1.68-0.76-3.07-1.74-2.96-4.31
		C1156.09,356.56,1156.95,358.99,1158.97,358.75z"/>
	<path class="st81" d="M1104.91,414.5c-1,0.01-2,0.02-3,0.02c5.23-6.35,4.52-14.65-1.41-19.94c-3.06-2.73-5.69-5.93-8.52-8.91
		c-0.02-0.32-0.03-0.64-0.04-0.96c0.92-1.61,2.41-2.05,4.13-2.03c5.53,3.9,10.84,8.36,14.58,13.8c2.98,4.34,3.34,10.3,3.43,15.84
		c0.03,1.74-1.04,1.72-2.28,1.8C1109.51,414.27,1107.17,413.66,1104.91,414.5z"/>
	<path class="st57" d="M1115.84,650.71c0.38-0.02,0.76-0.05,1.14-0.07c1.14,2.08,2.28,4.16,3.42,6.24
		C1117.63,655.61,1115.89,653.72,1115.84,650.71z"/>
	<path class="st82" d="M1132.97,412.58c-1.87,0.21-3.08,0.14-3.92-2.28c-1.85-5.31-1.87-11.46-6.59-15.57
		c-2.28-1.98-3.67-4.9-6.6-6.18c-0.15-1.47,0.34-2.24,1.96-1.81c0.7,2.21,3.03,1.56,4.51,2.36c8.04,4.35,10.6,11.67,11.93,19.94
		C1134.52,410.72,1133.33,411.39,1132.97,412.58z"/>
	<path class="st83" d="M1117.81,386.74c-0.98,0.25-1.54,0.95-1.95,1.81c-1.77-1.53-4.79,1.36-6.12-1.73
		c-0.5-0.62-0.52-1.3-0.25-2.02c4.47-1.76,6.34-7.16,11.37-8.15c0.35-0.01,0.7-0.01,1.05-0.02
		C1120.53,380,1119.17,383.37,1117.81,386.74z"/>
	<path class="st84" d="M1126.16,336.48c0.1-2.65-1.89-5.21-0.34-7.92c0.41-2.12,1.78-3.79,2.73-5.65c0.59-1.16,1.44-2.52,2.86-2.24
		c1.5,0.29,0.69,1.85,0.91,2.86c0.1,0.44,1.05-0.35,1.58,0.09c0.89,0.38,0.85,1.22,0.99,1.98l-0.01,0.02
		c-1.54,2.38,0.62,1.95,1.62,1.91c3.03-0.12,5.79,0.6,8.38,2.11c-0.45,2.69-3.67,2.67-4.69,4.81c-3.12,2.23-6.53,3.74-10.35,4.26
		C1128.23,338.62,1126.61,338.51,1126.16,336.48z"/>
	<path class="st48" d="M1133.9,323.62c-1.16,0.77-1.31,2.62-3.05,2.93c-0.88-1.88,0.55-3.4,0.82-6.05
		c-2.74,2.83-2.94,6.53-5.86,8.06c-0.98-0.22-2.32,0.48-2.79-1.07c0.33-1.08,0.94-2,1.63-2.88c1.35-3.99,4.74-6.65,6.63-10.29
		c0.77-2.64,4.52-1.84,5.08-4.5c-0.87,0.26-0.78,2.33-2.26,1.74c-1.27-0.5-1.19-1.84-1.04-2.98c0.24-1.77,1.17-3.38,1.3-5.19
		c0.24-0.72,0.73-1.13,1.48-1.24c3.65-0.02,3.77,3.43,5.36,5.44c-1.04,3.29-3.61,6.23-2.27,10.05
		C1136.94,319.36,1135.02,321.15,1133.9,323.62z"/>
	<path class="st85" d="M1139.9,333.6c0.8-2.4,3.39-2.56,4.99-3.97c5.6,0.93,10.3,3.72,14.68,7.15c-3.55,0.74-6.38-1.95-9.75-2.03
		c-2.21-1-4.17-3.53-6.95-1.19c-0.3,0.36-0.67,0.6-1.13,0.72C1141.01,334.36,1140.38,334.19,1139.9,333.6z"/>
	<path class="st86" d="M1134.89,325.6c2.87-2.78,5.23-6.18,9.34-7.81c-1.77,5.7-5.41,8.67-9.35,7.83
		C1134.89,325.62,1134.89,325.6,1134.89,325.6z"/>
	<path class="st58" d="M1120.84,376.65c-3.89,2.32-5.46,7.85-10.96,7.96c-2.55,1.2-5.5,0.17-8.03,1.47
		c-1.69-0.29-3.59-0.68-3.31-2.86c0.26-2.02,2.09-2.17,3.87-2.23c6.32-0.24,8.86-0.94,14.27-3.99c-8.37,0.19-15.16,1.53-20.81,6.61
		c-1.31,0.37-2.63,0.74-3.94,1.11c-0.69-0.53-1.41-1.53-0.78-2.03c5.65-4.48,10.19-11.13,18.82-10c1.77,0.84,3.26,0.21,3.09-1.62
		c-0.34-3.79,1.55-4.08,4.5-3.71c1.41,0.18,2.96,0.17,4.24-0.79c0.35-0.34,0.69-0.67,1.04-1.01c2.19,0.04,1.68,1.47,1.17,2.58
		c-0.88,1.91-2.26,3.45-4.15,4.47C1116.23,374.89,1120.29,375.35,1120.84,376.65z"/>
	<path class="st79" d="M1121.82,366.55c-0.81,1.14-1.99,1.85-3.29,1.68c-2.85-0.38-5.37-1.4-4.18,3.61
		c0.46,1.93-2.46,2.39-4.36,0.83c2.25-0.55,2.15-2.16,1.78-3.91c0.03-0.74,0.05-1.48,0.08-2.22c0.37-0.94,0.74-1.88,1.12-2.81
		c1.81,2.32,3.72,4.24,6.77,1.76C1120.2,366.32,1120.93,366.59,1121.82,366.55z"/>
	<path class="st87" d="M1080.07,277.82c3.38,0.4,4.19,2.93,4.7,5.7C1081.69,282.87,1080.75,280.45,1080.07,277.82z"/>
	<path class="st88" d="M1124.92,325.62c-0.63,0.62-1.27,1.25-1.9,1.87c-4.08-2.9-4.31-5.07-1.36-13.04
		c1.45-3.52,2.9-7.03,4.34-10.54c1.42-1.17,0.36-3.6,2.56-4.8c0.11,1.33,0.19,2.39,0.28,3.46
		C1130.04,310.68,1129.35,318.47,1124.92,325.62z"/>
	<path class="st89" d="M1141.21,307.6c-2.59-0.78-2.66-4.26-5.32-4.97c-0.34-0.24-0.45-0.46-0.32-0.68
		c0.12-0.21,0.24-0.32,0.36-0.32c0.59-0.32,1.19-0.65,1.78-0.97c0.72-0.03,1.45-0.05,2.17-0.08c2.3-1.31-0.25-3.5,0.92-5.01
		c0.14-1.09-0.2-2.33,0.95-3.12c0.41,0.05,0.82,0.11,1.24,0.16c0.86-0.1,3.08-0.98,2.26,0.21c-1.82,2.64-0.02,5.4-1.32,7.78
		c1.4,0.91,1.62,1.99,0.36,3.17c-0.97,0.9-1.82,1.87-2.38,3.08C1141.67,307.1,1141.44,307.35,1141.21,307.6z"/>
	<path class="st48" d="M1141.9,306.85c-0.66-2.52,3.71-3.4,2.03-6.25c1.34-0.02,2.69-0.95,4.01,0.06c0.55,0.63,0.56,1.26,0.02,1.9
		c-0.41,0.24-2.1,0.17-0.47,1c2.11,1.08,4.55,1.59,5.29,4.31c-2.55-0.97-6.06,0.91-7.79-2.87
		C1144.72,304.43,1143.02,306.27,1141.9,306.85z"/>
	<path class="st52" d="M1147.97,302.56c-0.01-0.63-0.02-1.27-0.02-1.9c2.2,1.05,5.1,0.72,7.36,3.94
		C1152.25,303.75,1150.11,303.15,1147.97,302.56z"/>
	<path class="st53" d="M1143,287.69c-2.61-1.95-1.41-4.54-1.17-6.96c1.62,3.47,3.44,1.53,5.69,0.48
		C1146.01,283.37,1144.51,285.53,1143,287.69z"/>
	<path class="st90" d="M1135.94,301.63c0,0.33-0.02,0.66-0.04,0.99c-0.33,0.33-0.67,0.65-1,0.98c-1.3,3.53-1.51,7.34-2.91,10.84
		c-1.13,4.5-5.05,7.23-7.06,11.17c1.15-3.89,2.02-7.89,3.54-11.63c1.3-3.18-1.93-5.71-0.64-8.77c0.36-0.85,0.15-1.95,1.03-2.64
		C1131,300.66,1133.57,301.91,1135.94,301.63z"/>
	<path class="st53" d="M1140.81,295.56c0.82,1.76,1.55,3.6,0.48,5.45c-0.5,0.86-1.04,0.13-1.39-0.43
		C1140.13,298.89,1139.29,297.01,1140.81,295.56z"/>
	<path class="st91" d="M1109.93,596.68c-4.64-2.17-9.32,0.9-13.96-0.13c2.01-3.05,0.22-7.47,3.86-10.03
		c3.65-2.56,9.27-0.68,10.1,3.61c0.3,1.53,0.3,1.56,1.92,1.06c0.25-0.08,0.41-0.46,0.61-0.7c0.16,0.42,0.5,0.88,0.43,1.27
		c-0.26,1.6,1.08,3.22-0.07,4.78C1111.86,596.59,1110.9,596.63,1109.93,596.68z"/>
	<path class="st56" d="M1109.93,524.66c1.65-0.68,3.3-1.37,4.95-2.05c0.96,4.2-1.75,8.88,1.79,12.81c0.42,0.47-0.93,1.09-1.77,1.2
		c-0.44-4.23-3.21-7.39-5-11c-0.25-0.22-0.33-0.44-0.24-0.65C1109.75,524.76,1109.84,524.66,1109.93,524.66z"/>
	<path class="st92" d="M1095.88,383.6c2.07-1.82,2.62-5.14,5.63-6c8.51-2.41,11.81-2.59,16.89-0.93c-4.28,4.93-9.97,5.31-15.57,5.7
		c-1.23,0.09-2.8-1.06-3.4,0.69c-0.66,1.93,1.97,1.31,2.43,2.53c1.14,1.01,3.05,0.59,3.93,2.1c0.22,1.92,1.72,1.83,3.08,1.96
		c8.36,5.79,10.01,14.94,12.01,23.92c-1.34,0.29-2.68,0.58-4.02,0.87c-1.32,0.06-2.64,0.11-3.96,0.17
		c-2.66-0.04-5.33-0.08-7.99-0.12c0.73-0.85,1.72-0.83,2.72-0.88c4.81-0.29,5.7-1.84,5.01-6.57c-1.23-8.41-5.46-14.68-12.67-18.91
		C1098.03,386.99,1098.58,383.87,1095.88,383.6z"/>
	<path class="st61" d="M1110.94,482.65c-2.09-2.35-0.38,1.65-2.02,0.45c2.62-5.25-4.75-8.25-3.87-13.65
		c2.74-0.66,1.08,2.63,3.29,2.58c0.5-2.37-1.42-6.5,3.52-6.43C1112.07,471.31,1111.74,477,1110.94,482.65z"/>
	<path class="st93" d="M1120.89,413.59c-1.83-2.4-2.66-5.07-3.31-8.06c-1.07-4.96-2.61-9.98-7.5-12.84
		c-1.23-0.72-1.17-1.87-1.21-3.02c7.02,2.36,11.42,7.05,13.34,14.28c0.88,3.3,2.43,6.43,3.67,9.64
		C1124.22,413.58,1122.55,413.59,1120.89,413.59z"/>
	<path class="st51" d="M1105.8,387.71c-1.45-0.43-3.75,0.71-3.93-2.1c2.32-3.18,5.23-1.62,8.02-1c-0.05,0.74-0.1,1.47-0.15,2.21
		C1108.47,387.33,1107.41,388.74,1105.8,387.71z"/>
	<path class="st94" d="M1102.19,660.76c-1.81,0.15-3.14,3.05-5.24,1.16c-1.7-1.53-1.01-3.54-0.52-5.48c0.66-2.62-3-5-0.52-7.78
		c0.64-0.39,1.27-0.78,1.91-1.17c3.85,1.41,2.05,5.12,3.27,8.41c1.96-5.29,3.68-10.02,5.9-14.51c0.8-1.62,0.94-5.05,4.47-3.11
		c0.65,4.93-2.79,8.87-3.3,13.51C1106.68,655.12,1104.95,658.28,1102.19,660.76z"/>
	<path class="st95" d="M1110.89,637.62c-3.93,3.03-4.26,8.06-6.04,12.11c-1.16,2.64-3.01,5.19-2.87,8.74
		c-4.78-3.04-1.21-8.1-4.15-10.98c0.06-0.23,0.14-0.46,0.25-0.67c1.52-2.94,4.05-4.73,6.94-6.11c3.33-3.43,6.37-7.05,7.68-11.8
		c0.08,1.91,0.16,3.82,0.24,5.72C1112.25,635.63,1112.6,637.32,1110.89,637.62z"/>
	<path class="st96" d="M1110.89,637.62c0.68-0.99,1.36-1.99,2.04-2.98c1.78,3.14,0.58,10.56-1.96,13.21
		c-1.11,1.15-1.89,2.62-2.82,3.95C1106.8,646.63,1110.55,642.45,1110.89,637.62z"/>
	<path class="st97" d="M1109.93,524.66c-0.01,0.32-0.02,0.64-0.03,0.96c-1.61-0.32-3.4-1.26-4.8-0.85
		c-4.71,1.36-5.36-1.77-5.94-4.94c-0.66-3.59-1.11-7.46,3.09-9.21c2.58-1.07,5.16,2.01,8.57,0.4
		C1108.02,515.82,1115.83,520.42,1109.93,524.66z"/>
	<path class="st98" d="M1105.01,503.62c-2.35-0.05-6.08,2.09-4.95-2.57c0.73-3.03-3.81-7.61,1.15-8.62c2.95-0.6,8.08,0.47,9.41,5.05
		c0.49,1.7-0.03,4.11-0.94,5.71C1108.62,505,1106.35,502.94,1105.01,503.62z"/>
	<path class="st99" d="M1109.99,540.64c-3.24,1.52-6.77,0.07-10.07,0.94c-1-2.3,0.34-4.78-0.75-7.21c-0.72-1.59,1.59-3.37,2.44-2.87
		c1.97,1.16,2.39,0.3,3.17-1.11c0.36-0.65,1.11-1.6,1.96-1.03c1.18,0.8,2.82,1.82,3.02,2.97
		C1110.22,535.03,1109.96,537.86,1109.99,540.64z"/>
	<path class="st68" d="M1105.02,640.71c-1.8,2.62-4.27,4.48-6.94,6.11c-0.2-1-1.81-2.33-0.36-2.93c2.74-1.13,3.6-4.21,6.23-5.29
		C1103.96,639.48,1104.02,640.33,1105.02,640.71z"/>
	<path class="st100" d="M1099.54,329.88c0.48,1.26,0.95,2.51,1.43,3.77c-0.54,2.16-2.36,3.04-4.04,4.06
		c-4.89-0.66-9.66-0.79-11.77-7c-1.06-3.12,0.28-3.13,1.98-3.27C1091.47,327.09,1095.76,327.31,1099.54,329.88z"/>
	<path class="st28" d="M1092.91,365.63c1.57-3.37,3.07-2.22,4.86-0.03c-1.86,1.28-3.35-0.49-4.88,0.01
		C1092.89,365.61,1092.91,365.63,1092.91,365.63z"/>
	<path class="st101" d="M1126.16,336.48c1.06,0.99,2.41,1.02,3.74,1.16c1.06,1.37,2.93,0.62,4.16,1.56
		c0.73,0.62,1.28,1.31,0.91,2.35c-1.05,0.06-2.1,0.11-3.14,0.17c-1.1,1.1-2.42,1.73-3.98,1.87c-1.32,1.23-1.3,2.69-0.27,3.95
		c1.45,1.78,2.09-0.02,2.98-0.85c1.11-1.03,2.01-0.24,2.11,0.77c0.12,1.31,2.03,2.89,0.14,3.93c-3.53,1.93-7.25,3.5-10.89,5.22
		c-0.16-1.87,0.16-3.71,1.02-5.32c2.89-5.37,2.87-10.44-2.49-16.09c2.15,0.92,2.86,1.22,3.56,1.52
		C1124.82,337.65,1125.43,336.53,1126.16,336.48z"/>
	<path class="st102" d="M1115.96,358.69c5.34,0.85,1.88,3.23,0.91,5.89c-1.5-2.24-0.95-4.11-0.9-5.9
		C1115.97,358.67,1115.96,358.69,1115.96,358.69z"/>
	<path class="st79" d="M1119.88,372.59c0.09-2.73,4.81-3.51,2.99-7.05c0.01-0.66-0.02-1.33,0.03-1.99c0.06-0.75-0.41-1.99,0.57-2.1
		c1.34-0.15,1.2,1.25,1.4,2.16C1126.83,370.57,1125.73,372.54,1119.88,372.59z"/>
	<path class="st103" d="M1134.96,341.55c-0.32-0.61-0.65-1.23-0.97-1.84c1.91-3,5-4.4,8.01-5.91c0.27-0.15,0.56-0.23,0.86-0.23
		c0.4,0.29,1.17,0.6,1.15,0.86c-0.16,3.1-3.84,4.3-4.11,7.66C1139.84,342.94,1136.6,342.62,1134.96,341.55z"/>
	<path class="st104" d="M1127.84,343.58c0.83-1.67,2.28-2.05,3.98-1.87c0.53,0.91,2.54,1.19,1.81,2.45
		c-0.97,1.67-3.35,0.25-4.95,1.59C1127.99,346.32,1128.2,344.34,1127.84,343.58z"/>
	<path class="st79" d="M1142,333.8c-2.2,2.61-4.96,4.46-8.02,5.91c-1.55-0.31-3.74,0.63-4.09-2.07c3.63-0.61,6.76-2.47,10-4.04
		C1140.6,333.67,1141.3,333.73,1142,333.8z"/>
	<path class="st74" d="M1131.98,314.45c0.28-3.8,0.66-7.57,2.91-10.84c2.08,2.6-2.58,4.55-0.67,7.13c1.63-0.4,1.17-2.47,2.4-3.17
		C1138.32,312.08,1133.97,312.45,1131.98,314.45z"/>
	<path class="st105" d="M1137.57,274.12"/>
	<path class="st106" d="M1098.97,252.37c14.18-1.25,30.23,0,30.23,0C1113.53,255.62,1098.97,252.37,1098.97,252.37z"/>
</g>
<g id="Layer_2">
	<path class="st105" d="M1087.4,416.12"/>
	<path class="st105" d="M1066.24,644.79"/>
	<g>
		<g>
			<path class="st18" d="M1105.65,388.37c0.64,0,0.64-1,0-1C1105.01,387.37,1105.01,388.37,1105.65,388.37L1105.65,388.37z"/>
		</g>
	</g>
	<g>
		<g>
			<path class="st18" d="M1109.89,388.12c0.64,0,0.64-1,0-1C1109.25,387.12,1109.25,388.12,1109.89,388.12L1109.89,388.12z"/>
		</g>
	</g>
	<g>
		<g>
			<path class="st18" d="M1112.14,390.38c0.64,0,0.64-1,0-1C1111.5,389.38,1111.5,390.38,1112.14,390.38L1112.14,390.38z"/>
		</g>
	</g>
	<g>
		<g>
			<path class="st18" d="M1115.47,387.49c-0.42,0.27-0.42,0.87,0.02,1.14c0.55,0.33,0.98-0.19,1.17-0.65
				c0.24-0.59-0.72-0.85-0.96-0.27c0.15,0.13,0.3,0.25,0.44,0.38c-0.08,0.1-0.15,0.2-0.23,0.3c0.02-0.01,0.04-0.03,0.06-0.04
				C1116.52,388.01,1116.01,387.15,1115.47,387.49L1115.47,387.49z"/>
		</g>
	</g>
	<g>
		<g>
			<path class="st18" d="M1120.11,389.03c0.64,0,0.64-1,0-1C1119.47,388.03,1119.47,389.03,1120.11,389.03L1120.11,389.03z"/>
		</g>
	</g>
	<g>
		<g>
			<path class="st18" d="M1121.61,388.87c0.64,0,0.64-1,0-1C1120.96,387.87,1120.96,388.87,1121.61,388.87L1121.61,388.87z"/>
		</g>
	</g>
	<path class="st69" d="M1079.04,678.75c36.61,7.62,72.88,1.65,72.88,1.65c-32.52-7.03-38.74-26.07-38.74-26.07
		C1103.15,672.37,1079.04,678.75,1079.04,678.75z"/>
	<path class="st94" d="M1088.87,677.74c25.67,5.34,51.09,1.16,51.09,1.16c-22.79-4.93-27.15-18.28-27.15-18.28
		C1105.78,673.26,1088.87,677.74,1088.87,677.74z"/>
	<path class="st95" d="M1098.33,677.13c15.52,3.23,30.89,0.7,30.89,0.7c-13.78-2.98-16.42-11.05-16.42-11.05
		C1108.55,674.43,1098.33,677.13,1098.33,677.13z"/>
</g>
</svg>
